<?xml version="1.0" encoding="UTF-8" standalone="no"?>
<!-- Created with Inkscape (http://www.inkscape.org/) -->

<svg
   width="78.715698mm"
   height="44.707909mm"
   viewBox="0 0 78.715698 44.707909"
   version="1.1"
   id="svg29577"
   xmlns="http://www.w3.org/2000/svg"
   xmlns:svg="http://www.w3.org/2000/svg">
  <defs
     id="defs29574">
    <clipPath
       clipPathUnits="userSpaceOnUse"
       id="clipPath8119">
      <rect
         style="fill:none;fill-opacity:1;stroke:#000000;stroke-width:0.264583;stroke-linejoin:round;stroke-opacity:0.982213"
         id="rect8121"
         width="22.10639"
         height="25.822552"
         x="-399.11298"
         y="75.084267"
         transform="rotate(-17.726936)" />
    </clipPath>
    <clipPath
       clipPathUnits="userSpaceOnUse"
       id="clipPath606-2">
      <rect
         style="fill:#e3b9d6;stroke:#000000;stroke-linejoin:round"
         id="rect608-1"
         width="213.04381"
         height="225.07048"
         x="-646.00378"
         y="-566.97144" />
    </clipPath>
    <clipPath
       clipPathUnits="userSpaceOnUse"
       id="clipPath606-2-4">
      <rect
         style="fill:#e3b9d6;stroke:#000000;stroke-linejoin:round"
         id="rect608-1-9"
         width="213.04381"
         height="225.07048"
         x="-646.00378"
         y="-566.97144" />
    </clipPath>
  </defs>
  <g
     id="layer1"
     transform="translate(-65.642151,-101.62063)">
    <g
       id="g32024"
       transform="translate(-21.130672,-5.3901996)">
      <path
         style="display:inline;fill:#ffffff;fill-opacity:1;stroke-width:0.42054"
         d="m 120.66688,119.5848 c 2.65955,-5.41026 8.32031,-0.0109 6.90775,6.00292 -0.56579,2.40836 -2.0316,3.86087 -3.62535,3.77332 -2.87761,-0.15804 -5.02943,-6.22232 -3.2824,-9.77624 z"
         id="path2965-13-9" />
      <path
         style="display:inline;fill:#ffffff;fill-opacity:1;stroke-width:0.416958"
         d="m 106.37812,121.28333 c 2.89931,-4.87864 9.07039,-0.01 7.53049,5.41307 -0.6168,2.17171 -2.21475,3.48149 -3.95218,3.40255 -3.13703,-0.14251 -5.48284,-5.61091 -3.57831,-8.81562 z"
         id="path2965-13-9-2" />
      <path
         style="display:inline;fill:#9adcce;stroke-width:0.264583"
         d="m 109.93665,141.19759 c 0,-0.50552 -0.12212,-1.34342 -1.4558,-1.97318 -0.9055,-0.42758 -1.69374,-0.87986 -2.21748,-0.88861 -0.88385,-4.28734 11.8162,-4.12886 19.82916,-4.55942 l 2.19361,-0.42968 c 2.4408,-0.4781 3.34634,0.52458 3.34634,1.75099 0,1.64789 -2.63552,2.41274 -5.12508,2.41274 -0.79645,0 -0.46426,0.38992 -0.54286,0.51711 -0.0786,0.12718 0.15249,0.95825 0.51355,1.84682 0.87965,2.16484 0.8796,3.79837 -1.5e-4,4.4483 -16.41385,6.70494 -17.89935,-0.62695 -16.54129,-3.12507 z m 30.37636,3.89275 c 0.063,-0.27213 -1.21972,-0.33728 -1.78192,-0.72144 -0.70108,-0.47906 -0.91562,-0.81791 -0.94635,-1.4947 -0.0344,-0.75756 1.13452,-3.30069 1.77645,-4.76734 0.174,-0.39754 -0.63416,0.10535 -1.96191,0.47493 -1.22642,0.53218 -3.65449,-3.11641 -0.91883,-3.60798 0.57936,-0.0926 2.09005,-0.43028 2.36889,-0.70912 0.4996,-0.49959 19.75891,1.87296 18.5398,1.06546 8.39444,0.0633 4.98117,1.60634 1.05093,3.55676 -0.61955,0.30745 -2.08914,0.66209 -2.38316,1.29741 -0.66487,1.43662 0.48091,3.70957 -0.96753,4.7447 -4.05987,2.9014 -11.64828,1.36702 -14.77637,0.16132 z"
         id="path2975" />
      <path
         style="display:inline;fill:#78c5b4;stroke-width:0.264583"
         d="m 109.33218,141.62014 c 0.38278,0.20485 0.68274,-0.89023 0.77574,-1.14414 0.16173,-0.44165 0.35127,-1.52871 0.37636,-2.1585 0.0189,-0.47366 0.048,-0.47491 0.72523,-0.0311 0.67416,0.44173 0.72126,0.44083 1.05833,-0.0201 0.19402,-0.26535 0.35277,-0.74462 0.35277,-1.06503 0,-0.56733 0.4513,-0.90378 1.21227,-0.90378 0.20637,0 0.37523,0.2282 0.37523,0.50712 0,0.27891 0.14883,0.56717 0.33073,0.64056 0.1819,0.0734 0.0628,0.14286 -0.26458,0.15434 -0.32742,0.0115 -0.59532,-0.10667 -0.59532,-0.26259 0,-0.15591 -0.17476,-0.10871 -0.38837,0.10489 -0.38579,0.38579 -0.45432,2.09066 -0.0746,1.85699 0.10914,-0.0672 0.19844,-0.003 0.19844,0.14246 0,0.43713 -0.44742,0.5774 -1.10228,0.34557 -0.98524,-0.34878 -1.51517,-0.0829 -2.05277,1.02976 -0.27619,0.57165 -0.38454,0.96666 -0.24077,0.8778 0.15536,-0.096 0.22633,0.14504 0.17496,0.59421 -0.0523,0.457 -0.22495,0.72702 -0.43683,0.68306 -0.19272,-0.04 -0.27379,0.0513 -0.18015,0.20275 0.0936,0.1515 0.28107,0.20696 0.41654,0.12323 0.13546,-0.0837 0.2463,-0.0494 0.2463,0.0763 0,0.26175 1.49921,0.22395 2.1661,-0.0546 0.26572,-0.11099 0.38945,-0.36493 0.30578,-0.62755 -0.12112,-0.38015 -0.0998,-0.38626 0.15402,-0.0443 0.25832,0.34803 0.33895,0.33892 0.65523,-0.0741 0.33165,-0.43306 0.37004,-0.40696 0.4774,0.32454 0.0642,0.43752 0.005,0.90695 -0.13096,1.04319 -0.30654,0.30655 0.0163,0.89148 0.37105,0.67224 0.14184,-0.0877 0.44707,-0.002 0.67829,0.18952 0.37515,0.31134 0.35254,0.36792 -0.21002,0.52557 -0.44065,0.12348 -0.2282,0.18461 0.70571,0.20304 0.73489,0.0145 1.47903,-0.1165 1.65366,-0.29113 0.24694,-0.24694 0.3175,-0.23946 0.3175,0.0337 0,0.44382 2.70396,0.24174 2.85568,-0.21342 0.055,-0.16489 0.21655,-0.22772 0.35909,-0.13963 0.14253,0.0881 0.68241,0.0808 1.19973,-0.0163 0.91293,-0.17126 0.93597,-0.20487 0.78369,-1.14325 -0.0966,-0.59508 -0.4648,-1.25456 -0.95775,-1.71526 -0.44047,-0.41165 -0.80086,-0.82577 -0.80086,-0.92026 0,-0.0945 0.14288,-0.0289 0.3175,0.1457 0.46816,0.46816 0.92562,0.38666 1.0769,-0.19187 0.0975,-0.37289 0.0266,-0.46848 -0.2645,-0.35675 -0.31669,0.12152 -0.34482,0.0501 -0.1381,-0.35053 0.14279,-0.27673 0.2155,-0.6242 0.16159,-0.77216 -0.0552,-0.15142 0.36881,-0.28127 0.96987,-0.29703 0.61934,-0.0162 1.28676,-0.22608 1.58898,-0.49958 0.40125,-0.36313 0.52215,-0.3861 0.52567,-0.0999 0.002,0.20446 0.32057,0.6694 0.7068,1.0332 l 0.70223,0.66146 -0.17402,-0.66146 c -0.0957,-0.3638 -0.17565,-0.75778 -0.17764,-0.87551 -0.002,-0.11773 -0.14291,-0.12796 -0.31316,-0.0228 -0.21041,0.13005 -0.25338,0.045 -0.13416,-0.26572 0.0965,-0.25137 -0.005,-0.80669 -0.22642,-1.23403 -0.48068,-0.92953 -0.64448,-0.99049 -0.48826,-0.18168 0.10745,0.55631 0.0966,0.55333 -0.16534,-0.0454 -0.21078,-0.48177 -0.19637,-0.69261 0.0581,-0.84987 0.38958,-0.24077 1.04291,0.89264 1.82521,3.16645 0.71125,2.06729 0.82166,4.00344 -0.10034,4.6851 -0.73757,0.77459 -1.28545,0.84319 -1.98055,1.10292 -0.38282,0.14305 -0.85178,0.13447 -1.22171,0.26067 -14.79957,5.04899 -19.38801,-3.28467 -14.03922,-3.85701 z m 4.08218,3.57162 c 0,-0.0558 -0.23829,-0.16375 -0.52953,-0.23991 -0.29124,-0.0762 -0.46281,-0.0305 -0.38126,0.10143 0.14241,0.23043 0.91079,0.34725 0.91079,0.13848 z m 10.51422,-0.8583 c 0.32579,-0.0873 0.52712,-0.26429 0.44741,-0.39327 -0.0797,-0.12897 0.0407,-0.2345 0.26756,-0.2345 0.63322,0 0.48932,-0.4792 -0.18282,-0.60883 -0.32743,-0.0631 -0.13468,-0.0674 0.42831,-0.009 0.8737,0.09 0.99855,0.04 0.85241,-0.34077 -0.10565,-0.27532 0.0449,-0.67618 0.39316,-1.0469 0.64433,-0.68585 0.46491,-1.23176 -0.36664,-1.11559 -0.42941,0.06 -0.56596,-0.0625 -0.57187,-0.5131 -0.004,-0.32554 -0.0971,-0.59343 -0.20621,-0.59531 -0.10914,-0.002 -0.44467,-0.003 -0.74562,-0.003 h -0.54718 l 0.5652,0.79375 c 0.44471,0.62454 0.48146,0.79375 0.17236,0.79375 -0.21607,0 -0.44279,-0.0893 -0.50382,-0.19844 -0.061,-0.10914 -0.0747,-0.0496 -0.0303,0.13229 0.0443,0.1819 -0.023,0.33073 -0.14978,0.33073 -0.31018,0 -0.73611,1.34057 -0.60946,1.91823 0.0558,0.25466 0.21888,0.46302 0.36232,0.46302 0.14344,0 0.18601,0.121 0.0946,0.2689 -0.0914,0.14789 -0.27703,0.2004 -0.41249,0.11667 -0.13547,-0.0837 -0.24631,-0.0261 -0.24631,0.12798 0,0.31935 0.15645,0.33742 0.98922,0.11422 z m -0.19485,-2.01683 c -8e-4,-0.27496 1.25889,-0.25052 1.43088,0.0278 0.0769,0.12441 -0.21347,0.21371 -0.64524,0.19844 -0.43177,-0.0153 -0.78531,-0.11706 -0.78564,-0.2262 z m 1.58689,-0.6542 c 0,-0.33292 0.75628,-0.99283 0.93406,-0.81504 0.0701,0.0701 -0.11134,0.34368 -0.40327,0.60787 -0.29193,0.2642 -0.53079,0.35742 -0.53079,0.20717 z m 1.05834,0.72034 c 0,-0.14552 -0.0525,-0.26458 -0.11668,-0.26458 -0.0642,0 -0.19026,0.11906 -0.2802,0.26458 -0.0899,0.14552 -0.0374,0.26459 0.11668,0.26459 0.15411,0 0.2802,-0.11907 0.2802,-0.26459 z m 11.17415,0.38573 c 0,-0.0627 2.29314,1.23377 2.58418,1.31627 1.47968,0.41978 1.72477,0.45279 1.32513,0.17848 -0.31432,-0.21575 -0.32778,-0.33778 -0.0661,-0.59942 0.73434,-0.73435 0.0589,-2.60393 -0.94079,-2.60393 -0.37991,0 -0.09,-0.82409 0.42609,-1.21126 0.2091,-0.15687 0.38019,-0.60336 0.38019,-0.99219 0,-0.42346 0.1459,-0.70697 0.36381,-0.70697 0.20009,0 0.3638,-0.25086 0.3638,-0.55747 0,-0.36941 -0.12509,-0.50948 -0.3708,-0.41519 -0.21983,0.0844 -0.42471,-0.0638 -0.5032,-0.36398 -0.10854,-0.41506 -0.0485,-0.46136 0.33336,-0.257 0.25616,0.13709 0.78979,0.1905 1.18584,0.11868 0.49262,-0.0893 0.66171,-0.0361 0.53528,0.16846 -0.11836,0.19152 -0.007,0.26246 0.30954,0.19732 0.2719,-0.056 0.48191,-0.28098 0.46669,-0.50008 -0.0165,-0.23689 0.22486,-0.41926 0.59532,-0.44992 0.34263,-0.0284 0.62297,0.0594 0.62297,0.19506 0,0.13565 0.50088,0.54532 1.11307,0.91038 1.29619,0.77296 0.94353,1.12125 -0.75003,0.74074 -1.72856,-0.38838 -2.74429,0.32056 -2.74429,1.9154 0,0.70599 0.38637,0.92345 0.61852,0.34812 0.10036,-0.24872 0.13863,-0.24258 0.15434,0.0248 0.0115,0.19552 -0.21724,0.41776 -0.50828,0.49387 -0.29104,0.0761 -0.52916,0.316 -0.52916,0.53308 0,0.29198 0.17734,0.35019 0.68138,0.22369 l 0.68139,-0.17102 -0.48295,0.66439 c -0.26562,0.36541 -0.62571,0.61412 -0.8002,0.55268 -0.1991,-0.0701 -0.25626,0.0472 -0.15348,0.3151 0.0901,0.23474 0.0542,0.35957 -0.0796,0.27739 -0.13387,-0.0822 -0.25204,0.24858 -0.26261,0.73502 -0.018,0.82948 0.0477,0.89702 1.05833,1.08706 0.59265,0.11145 1.34544,0.18348 1.67286,0.16007 0.32742,-0.0234 0.59531,0.057 0.59531,0.17875 0,0.30193 4.80227,0.30748 5.73367,0.007 0.59865,-0.19337 0.51702,-0.21069 -0.40743,-0.0864 -0.90423,0.12153 -1.12981,0.0771 -1.03556,-0.20394 0.0663,-0.19763 0.31404,-0.3607 0.55059,-0.36239 0.23655,-0.002 0.57311,-0.1461 0.74791,-0.3209 0.24738,-0.24738 0.15813,-0.37854 -0.40264,-0.59175 -0.39625,-0.15065 -0.64674,-0.3932 -0.55663,-0.539 0.0901,-0.14579 0.22335,-0.26507 0.29611,-0.26507 0.0728,0 0.0587,0.11906 -0.0312,0.26458 -0.0899,0.14552 -0.0374,0.26458 0.11668,0.26458 0.49123,0 0.30332,-1.56437 -0.25497,-2.12266 -0.45217,-0.45217 -0.47292,-0.55906 -0.13381,-0.68919 0.22075,-0.0847 0.32204,-0.29037 0.2251,-0.45702 -0.0969,-0.16665 0.0526,-0.10873 0.33225,0.12872 0.6822,0.5792 1.65211,0.85373 2.04256,0.57815 0.5823,-0.41101 1.36614,-0.23996 1.43673,0.31352 0.0674,0.52801 0.0671,0.52801 -0.17949,-5.3e-4 -0.2387,-0.51155 -0.25306,-0.5086 -0.43133,0.0885 -0.10143,0.33973 -0.2572,0.50017 -0.34615,0.35655 -0.25737,-0.41554 -2.21735,-0.49592 -2.35052,-0.0964 -0.0629,0.18873 0.36712,0.8012 0.95563,1.36103 l 1.07002,1.01788 0.95407,-0.43244 0.95407,-0.43244 -0.15363,-1.44173 c -0.10804,-1.01383 -0.3081,-1.54991 -0.67407,-1.80624 -0.31707,-0.22202 -0.52043,-0.66875 -0.52043,-1.14321 0,-0.74069 -0.0582,-0.78068 -1.19062,-0.81843 -0.65485,-0.0218 -1.30969,-0.0516 -1.45521,-0.0661 -0.14552,-0.0145 -0.25392,0.0819 -0.24088,0.21434 0.013,0.13244 -0.16398,0.34584 -0.39337,0.47421 -0.47354,0.26501 -1.48242,-0.16581 -1.48242,-0.63303 0,-0.16703 0.21108,-0.10526 0.48386,0.1416 0.63851,0.57785 0.99838,0.56138 0.54945,-0.0251 -0.19492,-0.25466 -0.25486,-0.37939 -0.13319,-0.27718 0.28876,0.24259 0.95197,-0.42669 0.95197,-0.96069 0,-0.22868 0.16885,-0.41577 0.37523,-0.41577 0.65261,0 1.21227,0.30873 1.21227,0.66874 0,0.19115 0.35718,0.426 0.79375,0.52188 0.43656,0.0959 0.79375,0.29668 0.79375,0.44621 0,0.14952 0.17516,0.20465 0.38925,0.12249 0.29697,-0.11395 0.42892,0.14965 0.55656,1.11186 l 0.1673,1.26122 c 3.32324,2.82743 2.027,6.0592 -2.84532,5.92335 -4.65685,-0.12984 -10.60905,0.35473 -14.11107,-2.65788 -0.27938,-0.24034 -0.0307,-0.6076 -0.23475,-0.9273 z m 16.44498,1.23017 c -0.0962,-0.0884 -0.22831,-0.0112 -0.29358,0.17164 -0.0653,0.18281 -0.24595,0.25371 -0.40153,0.15756 -0.17127,-0.10585 -0.20525,-0.0492 -0.0861,0.14349 0.15231,0.24645 0.28245,0.24716 0.57644,0.003 0.20884,-0.17332 0.301,-0.38746 0.2048,-0.47587 z m -37.8765,0.23614 c 0,-0.50933 0.0545,-0.71769 0.121,-0.46302 0.0666,0.25466 0.0666,0.67138 0,0.92604 -0.0666,0.25466 -0.121,0.0463 -0.121,-0.46302 z m 32.22183,0.37482 c 0.002,-0.27891 0.12491,-0.68571 0.27263,-0.90399 0.19613,-0.28984 0.22068,-0.18281 0.091,0.39687 -0.21762,0.97286 -0.36905,1.18404 -0.36365,0.50712 z m 0.67442,0.0768 c 0.0994,-0.26094 0.24731,-0.40779 0.32877,-0.32632 0.0815,0.0815 1.7e-4,0.29495 -0.18065,0.47443 -0.26131,0.25936 -0.2917,0.22897 -0.14812,-0.14811 z m -29.51805,-0.2118 c 0,-0.1319 0.23812,-0.23981 0.52916,-0.23981 0.29105,0 0.52917,0.0456 0.52917,0.10143 0,0.0558 -0.23812,0.1637 -0.52917,0.23981 -0.29104,0.0761 -0.52916,0.0305 -0.52916,-0.10143 z m 25.13542,0.0248 c -0.34203,-0.22103 -0.33504,-0.25704 0.0505,-0.26053 0.24607,-0.002 0.52099,0.11501 0.61092,0.26053 0.20696,0.33486 -0.1433,0.33486 -0.66145,0 z m -2.11667,-0.20924 c 0,-0.10595 0.23372,-0.3386 0.51938,-0.51699 0.4281,-0.26736 0.49425,-0.25889 0.37641,0.0482 -0.15353,0.4001 -0.89579,0.78855 -0.89579,0.46881 z m -23.15104,-0.58455 c 0.0899,-0.14552 0.42438,-0.25621 0.74322,-0.24599 0.55889,0.0179 0.56071,0.0268 0.0505,0.24599 -0.72826,0.31294 -0.98716,0.31294 -0.79375,0 z m 20.90208,0 c 0.0899,-0.14552 0.21603,-0.26458 0.2802,-0.26458 0.0642,0 0.11668,0.11906 0.11668,0.26458 0,0.14552 -0.12609,0.26458 -0.2802,0.26458 -0.15411,0 -0.20662,-0.11906 -0.11668,-0.26458 z m 4.21776,-0.12866 c -0.46988,-0.35977 -0.4404,-0.36882 0.3463,-0.10641 0.89787,0.2995 1.1036,0.49965 0.51359,0.49965 -0.19046,0 -0.57742,-0.17696 -0.85989,-0.39324 z m 1.73537,-0.13592 c 0,-0.35278 0.17639,-0.52917 0.52916,-0.52917 0.35278,0 0.52917,0.17639 0.52917,0.52917 0,0.35277 -0.17639,0.52916 -0.52917,0.52916 -0.35277,0 -0.52916,-0.17639 -0.52916,-0.52916 z m -29.48975,0.0183 c -0.0837,-0.13547 -0.0511,-0.30882 0.0726,-0.38524 0.12365,-0.0764 0.22481,0.0344 0.22481,0.2463 0,0.44614 -0.0834,0.48511 -0.29738,0.13894 z m 0.91474,-0.31371 c 0,-0.44902 0.12632,-0.53587 0.63731,-0.43818 0.435,0.0831 0.59712,0.0171 0.51071,-0.20808 -0.0872,-0.22728 0.16025,-0.32177 0.79556,-0.30376 l 0.92215,0.0261 -0.96984,0.73458 c -1.18205,0.89532 -1.89589,0.96659 -1.89589,0.1893 z m 21.96042,0.0345 c 0.21828,-0.14309 0.68461,-0.26199 1.03629,-0.26422 0.84921,-0.005 0.63397,0.14506 -0.50712,0.35445 -0.65152,0.11955 -0.80839,0.0928 -0.52917,-0.0902 z m -24.74002,-0.53448 c -0.69835,-0.77166 -0.36865,-0.87362 0.36388,-0.11253 0.34055,0.35383 0.50607,0.64332 0.36783,0.64332 -0.13825,0 -0.46751,-0.23885 -0.73171,-0.53079 z m 23.25968,-0.0645 -0.50403,-0.59531 0.59531,0.50403 c 0.32742,0.27721 0.59531,0.5451 0.59531,0.59531 0,0.21173 -0.21293,0.0554 -0.68659,-0.50403 z m 6.91696,0.17497 c -0.28087,-0.20537 -0.39862,-0.38252 -0.26167,-0.39365 0.13696,-0.0111 0.45737,-0.0601 0.71203,-0.10888 0.25643,-0.0491 0.46302,0.071 0.46302,0.26921 0,0.55352 -0.35238,0.64354 -0.91338,0.23332 z m 4.3898,-0.0861 c 0.34355,-0.27851 0.67136,-0.45998 0.72847,-0.40327 0.19356,0.1922 -0.56306,0.90966 -0.9593,0.90966 -0.26826,0 -0.19468,-0.16142 0.23083,-0.50639 z m 4.1965,0.32976 c 0.21828,-0.092 0.49524,-0.29827 0.61546,-0.45835 0.14058,-0.1872 0.17997,-0.14945 0.11036,0.10582 -0.0595,0.21828 -0.33647,0.42454 -0.61545,0.45835 -0.35641,0.0432 -0.38923,0.0117 -0.11037,-0.10582 z m -1.85208,-0.35253 c 0,-0.14552 0.11906,-0.26459 0.26458,-0.26459 0.14552,0 0.26458,0.11907 0.26458,0.26459 0,0.14552 -0.11906,0.26458 -0.26458,0.26458 -0.14552,0 -0.26458,-0.11906 -0.26458,-0.26458 z m -36.40536,-0.59076 c -0.28171,-0.33018 -0.32269,-0.45159 -0.0929,-0.27525 0.22612,0.17352 0.70237,0.43182 1.05834,0.57398 0.59027,0.23574 0.59844,0.25996 0.0929,0.27525 -0.30487,0.009 -0.78113,-0.24906 -1.05834,-0.57398 z m 33.13714,0.32794 c 0.31253,-0.12609 0.64698,-0.35667 0.74322,-0.51239 0.0962,-0.15572 0.30523,-0.28313 0.46443,-0.28313 0.1592,0 0.0149,0.23813 -0.32068,0.52917 -0.33558,0.29104 -0.80028,0.52162 -1.03267,0.51239 -0.28899,-0.0114 -0.24294,-0.0892 0.1457,-0.24604 z m -10.33797,-0.54666 c -0.28013,-0.28239 -0.38788,-0.51344 -0.23945,-0.51344 0.14843,0 0.48537,0.23812 0.74876,0.52917 0.61396,0.67841 0.16551,0.66456 -0.50931,-0.0157 z m 2.16296,0.36966 c 0.1819,-0.0734 0.47955,-0.0734 0.66146,0 0.1819,0.0734 0.0331,0.13346 -0.33073,0.13346 -0.36381,0 -0.51263,-0.0601 -0.33073,-0.13346 z m 11.38196,-0.3985 c 0.15375,-0.15375 0.43572,-0.22749 0.6266,-0.16386 0.19816,0.066 0.0782,0.18598 -0.27954,0.27954 -0.4401,0.11509 -0.5434,0.0807 -0.34706,-0.11568 z m -40.46643,-0.57081 c -0.0984,-0.48281 -0.0616,-0.65679 0.1041,-0.49112 0.1411,0.1411 0.2097,0.47754 0.15244,0.74766 -0.0771,0.36376 -0.14363,0.29723 -0.25654,-0.25654 z m 2.69227,0.25649 c 0,-0.24831 -0.17108,-0.51712 -0.38017,-0.59735 -0.59581,-0.22864 -0.21306,-0.77568 0.58497,-0.83605 0.49801,-0.0377 0.60905,0.017 0.35877,0.17649 -0.30305,0.19318 -0.29832,0.26865 0.0289,0.46041 0.33622,0.19703 0.32206,0.3011 -0.10055,0.73866 -0.4411,0.4567 -0.49192,0.46267 -0.49192,0.0578 z m 1.99962,0.11898 c -0.0815,-0.13195 0.09,-0.1776 0.38127,-0.10144 0.6178,0.16156 0.6959,0.34135 0.14828,0.34135 -0.2097,0 -0.448,-0.10796 -0.52955,-0.23991 z m 1.43997,-0.28926 c 0,-0.3985 0.13815,-0.54136 0.46302,-0.4788 0.25466,0.049 0.46302,0.2645 0.46302,0.4788 0,0.2143 -0.20836,0.42975 -0.46302,0.4788 -0.32487,0.0626 -0.46302,-0.0803 -0.46302,-0.4788 z m 2.11667,0.0156 c 0,-0.28245 0.10186,-0.57651 0.22636,-0.65345 0.1245,-0.0769 0.17015,0.15415 0.10145,0.51355 -0.14923,0.78065 -0.32781,0.85686 -0.32781,0.13991 z m 19.3703,0.09 c -0.18764,-0.2036 -0.22443,-0.37018 -0.0818,-0.37018 0.27475,0 0.67249,0.50329 0.51556,0.65237 -0.051,0.0484 -0.24616,-0.0786 -0.4338,-0.28218 z m 5.36824,0.15898 c -0.0899,-0.14552 -0.0374,-0.26458 0.11668,-0.26458 0.15411,0 0.2802,0.11906 0.2802,0.26458 0,0.14552 -0.0525,0.26459 -0.11668,0.26459 -0.0642,0 -0.19026,-0.11907 -0.2802,-0.26459 z m 0.82644,-0.14252 c -0.0907,-0.23646 -0.15475,-0.62854 -0.14224,-0.8713 0.0125,-0.24276 0.12764,-0.0902 0.25584,0.33906 0.24941,0.8351 0.1612,1.24837 -0.1136,0.53224 z m 1.54817,0.13178 c -0.10354,-0.16754 0.009,-0.50155 0.24949,-0.74225 0.38502,-0.38492 0.46795,-0.38983 0.68846,-0.0408 0.13789,0.21828 0.21302,0.51594 0.16695,0.66146 -0.12349,0.39001 -0.88707,0.47401 -1.1049,0.12155 z m 1.46185,0.17134 c 0,-0.0572 0.17859,-0.17251 0.39688,-0.25628 0.21828,-0.0838 0.39687,-0.037 0.39687,0.10399 0,0.14095 -0.17859,0.25628 -0.39687,0.25628 -0.21829,0 -0.39688,-0.0468 -0.39688,-0.10399 z m -35.1896,-0.42518 c -0.23846,-0.15411 -0.2711,-0.2581 -0.0818,-0.26053 0.17332,-0.002 0.3887,0.11501 0.47864,0.26053 0.20302,0.32849 0.11142,0.32849 -0.39687,0 z m -1.03744,-0.41892 c 0.0127,-0.30823 0.0754,-0.37092 0.15985,-0.15986 0.0764,0.191 0.067,0.4192 -0.0209,0.50712 -0.0879,0.0879 -0.15045,-0.0683 -0.13896,-0.34726 z m 33.84579,0.13872 c 0,-0.15411 0.11906,-0.20661 0.26458,-0.11668 0.14552,0.0899 0.26459,0.21603 0.26459,0.2802 0,0.0642 -0.11907,0.11668 -0.26459,0.11668 -0.14552,0 -0.26458,-0.12609 -0.26458,-0.2802 z m -29.63335,-0.38126 c 0,-0.21828 0.11908,-0.39687 0.2646,-0.39687 0.14552,0 0.26458,0.17859 0.26458,0.39687 0,0.21828 -0.11906,0.39688 -0.26458,0.39688 -0.14552,0 -0.2646,-0.1786 -0.2646,-0.39688 z m 23.13781,0.11085 c -0.0972,-0.15731 -0.45827,-0.21537 -0.80232,-0.12901 -0.48522,0.12178 -0.5911,0.0672 -0.47199,-0.24315 0.0844,-0.22008 0.37893,-0.40015 0.65441,-0.40015 0.27547,0 0.50086,-0.11906 0.50086,-0.26458 0,-0.65165 0.40271,-0.1801 0.45236,0.52969 0.0583,0.83406 -0.0394,0.9828 -0.33332,0.5072 z m 8.87679,-0.0952 c 0,-0.54581 0.34416,-0.67861 0.71582,-0.27621 0.25101,0.27177 0.23232,0.37856 -0.0878,0.50139 -0.5761,0.22107 -0.62804,0.20245 -0.62804,-0.22518 z m -33.03115,-0.67708 c 0,-0.3638 0.06,-0.51263 0.13345,-0.33073 0.0734,0.1819 0.0734,0.47956 0,0.66146 -0.0734,0.1819 -0.13345,0.0331 -0.13345,-0.33073 z m 3.94787,0.11025 c 0.0127,-0.30823 0.0754,-0.37092 0.15985,-0.15986 0.0764,0.191 0.067,0.4192 -0.0209,0.50712 -0.0879,0.0879 -0.15045,-0.0684 -0.13896,-0.34726 z m 2.02522,0.1215 c 0.17948,-0.18082 0.39297,-0.26211 0.47443,-0.18065 0.0815,0.0815 -0.0654,0.22941 -0.32631,0.32877 -0.37709,0.14358 -0.40748,0.11319 -0.14812,-0.14812 z m 24.54452,0.0328 c 0.0899,-0.14552 0.21603,-0.26459 0.2802,-0.26459 0.0642,0 0.11667,0.11907 0.11667,0.26459 0,0.14552 -0.12609,0.26458 -0.2802,0.26458 -0.1541,0 -0.20661,-0.11906 -0.11667,-0.26458 z m -1.78594,-0.51906 c -0.25466,-0.24825 -0.4612,-0.56045 -0.45897,-0.69376 0.002,-0.13332 0.0915,-0.11315 0.19844,0.0448 0.10691,0.15796 0.41803,0.40938 0.69138,0.5587 0.27335,0.14933 0.39242,0.33229 0.26459,0.40658 -0.12783,0.0743 -0.44078,-0.0681 -0.69544,-0.31632 z m 7.21395,-0.0595 c 0.006,-0.85426 0.28598,-1.20387 1.05231,-1.31241 0.59482,-0.0843 0.65968,-0.003 0.66146,0.83262 0.002,0.85186 -0.0669,0.93269 -0.85793,1.00895 -0.74714,0.072 -0.85936,0.003 -0.85584,-0.52916 z m -33.78187,-0.1007 c -0.26868,-0.70017 0.36943,-1.09255 0.90522,-0.55662 0.40347,0.40357 0.4115,0.49264 0.0643,0.71222 -0.56208,0.35543 -0.78724,0.31929 -0.96947,-0.1556 z m 3.42847,0.1224 c 0.32332,-0.18814 0.42472,-0.4597 0.3181,-0.85185 -0.14026,-0.51586 -0.12554,-0.52612 0.14159,-0.0988 0.32245,0.51579 -0.0559,1.25051 -0.63597,1.23487 -0.16408,-0.004 -0.0848,-0.13233 0.17628,-0.28422 z m 26.21656,-0.0919 c -0.18432,-0.48031 0.0834,-0.93871 0.54822,-0.93871 0.4011,0 0.75142,0.71925 0.5271,1.08221 -0.23126,0.37419 -0.9115,0.28341 -1.07532,-0.1435 z m -6.93673,-0.55317 c -0.44331,-0.97295 -0.35873,-1.18052 0.12061,-0.29601 0.22384,0.41305 0.35748,0.80051 0.29697,0.86102 -0.0605,0.0605 -0.24843,-0.19374 -0.41758,-0.56501 z m -20.15132,0.14362 c 0.51815,-0.33485 0.86841,-0.33485 0.66146,0 -0.0899,0.14552 -0.36486,0.26276 -0.61093,0.26054 -0.38557,-0.004 -0.39255,-0.0395 -0.0505,-0.26054 z m 24.4588,-0.11066 c -0.28224,-0.20638 -0.45383,-0.43425 -0.3813,-0.50639 0.0725,-0.0721 0.41296,0.0967 0.7565,0.37525 0.7185,0.58249 0.39615,0.69517 -0.3752,0.13114 z m -27.92971,-0.20445 c -0.0172,-0.19049 -0.0172,-0.43564 0,-0.54478 0.0462,-0.29246 -0.44006,-0.24142 -0.63014,0.0661 -0.0899,0.14552 -0.29014,0.26459 -0.44489,0.26459 -0.19215,0 -0.18792,-0.11259 0.0133,-0.35508 0.16208,-0.19529 0.24079,-0.40897 0.17492,-0.47484 -0.0659,-0.0659 0.27822,-0.0733 0.76467,-0.0165 0.72006,0.0841 0.85975,0.19767 0.75159,0.61126 -0.16265,0.62197 -0.58648,0.92445 -0.62947,0.44923 z m 2.25288,-0.0166 c -0.10435,-0.18137 -0.096,-0.24521 0.0185,-0.14187 0.11454,0.10333 0.55035,0.011 0.96846,-0.20523 0.41812,-0.21622 0.76021,-0.33359 0.76021,-0.26083 0,0.0728 -0.35043,0.31351 -0.77874,0.53499 -0.60899,0.31493 -0.82008,0.33082 -0.96846,0.0729 z m 26.75032,-0.0911 -0.79375,-0.37392 0.79321,0.1553 c 0.82827,0.16216 1.09058,0.30273 0.90454,0.48471 -0.0606,0.0593 -0.46743,-0.0604 -0.904,-0.26609 z m 3.13091,0.0376 c 0,-0.21188 0.10116,-0.32272 0.2248,-0.2463 0.12364,0.0764 0.1563,0.24977 0.0726,0.38523 -0.21395,0.34618 -0.29738,0.3072 -0.29738,-0.13893 z m -26.1893,-0.47466 c -0.14128,-0.32742 -0.21363,-0.791 -0.16078,-1.03016 0.13791,-0.62416 1.29108,-0.77562 1.78127,-0.23396 0.51968,0.57423 0.54429,1.63226 0.0334,1.43621 -0.20356,-0.0781 -0.44871,-0.0148 -0.54478,0.1406 -0.29142,0.47152 -0.83713,0.31767 -1.10912,-0.31269 z m 16.5761,0.31511 c 0,-0.15411 0.11907,-0.20661 0.26459,-0.11668 0.14552,0.0899 0.26458,0.21603 0.26458,0.2802 0,0.0642 -0.11906,0.11668 -0.26458,0.11668 -0.14552,0 -0.26459,-0.12609 -0.26459,-0.2802 z m 1.5875,-0.11668 c -0.18985,-0.22875 -0.21556,-0.39687 -0.0607,-0.39687 0.14777,0 0.33721,0.17859 0.42097,0.39687 0.0838,0.21829 0.11108,0.39688 0.0607,0.39688 -0.0504,0 -0.23981,-0.17859 -0.42097,-0.39688 z m -21.96042,-0.91265 c 0,-0.25169 0.29598,-0.59247 0.65772,-0.75729 0.5845,-0.26631 0.62714,-0.38008 0.38309,-1.02199 -0.25867,-0.68034 -0.24691,-0.69849 0.20218,-0.31218 0.68557,0.58972 1.35141,0.77815 2.09244,0.59216 0.51583,-0.12946 0.58569,-0.23706 0.34346,-0.52893 -0.30998,-0.37349 0.042,-0.52607 0.39629,-0.17179 0.35502,0.35502 1.74566,0.29315 1.74566,-0.0777 0,-0.19267 0.10562,-0.41558 0.23471,-0.49536 0.31563,-0.19507 0.23093,0.69654 -0.10242,1.07825 -0.14552,0.16662 -0.35113,0.25059 -0.45692,0.18659 -0.10578,-0.064 -0.65657,0.009 -1.22397,0.16143 -0.86516,0.23296 -1.0603,0.41633 -1.20929,1.13632 -0.16353,0.79034 -0.20605,0.82064 -0.53524,0.38149 -0.19668,-0.26238 -0.39938,-0.36413 -0.45046,-0.22612 -0.0511,0.13801 -0.53935,0.30983 -1.08506,0.38182 -0.81454,0.10745 -0.99219,0.0489 -0.99219,-0.32673 z m 21.39081,-0.74846 c 0.1448,-0.39609 0.27267,-0.56351 0.28415,-0.37204 0.0115,0.19147 -0.10172,0.57722 -0.25157,0.85722 -0.14624,-0.0699 -0.0882,-0.33294 -0.0326,-0.48518 z m -28.93144,0.47049 c -0.0899,-0.14552 -0.0374,-0.26458 0.11668,-0.26458 0.1541,0 0.28019,0.11906 0.28019,0.26458 0,0.14552 -0.0525,0.26458 -0.11667,0.26458 -0.0642,0 -0.19026,-0.11906 -0.2802,-0.26458 z m 5.83609,-0.23991 c -0.0815,-0.13195 0.09,-0.17759 0.38126,-0.10143 0.6178,0.16156 0.6959,0.34134 0.14828,0.34134 -0.2097,0 -0.44799,-0.10796 -0.52954,-0.23991 z m 25.32806,-1.42711 c 0.32223,-0.33478 0.63474,-0.57364 0.69448,-0.53079 0.1544,0.11073 -0.8082,1.13948 -1.06621,1.13948 -0.11777,0 0.0495,-0.27391 0.37173,-0.60869 z m -1.86153,0.16887 c -0.18191,-0.0734 -0.33073,-0.36868 -0.33073,-0.65618 0,-0.2875 0.11005,-0.45472 0.24456,-0.37159 0.1345,0.0831 0.29601,-0.0587 0.35889,-0.31511 0.0629,-0.25644 0.10166,-0.0203 0.0862,0.52474 -0.0155,0.54505 -0.0282,0.98213 -0.0282,0.9713 0,-0.0109 -0.14883,-0.0798 -0.33073,-0.15316 z m -19.69493,-0.27009 c 0.191,-0.0764 0.4192,-0.067 0.50712,0.0209 0.0879,0.0879 -0.0684,0.15045 -0.34726,0.13896 -0.30823,-0.0127 -0.37092,-0.0754 -0.15986,-0.15985 z m 23.28334,0 c 0.19099,-0.0764 0.4192,-0.067 0.50712,0.0209 0.0879,0.0879 -0.0683,0.15045 -0.34727,0.13896 -0.30823,-0.0127 -0.37092,-0.0754 -0.15985,-0.15985 z m -21.11175,-0.47432 c -0.20869,-0.25146 -0.22877,-0.40327 -0.0533,-0.40327 0.31976,0 0.69257,0.50196 0.50908,0.68545 -0.0666,0.0666 -0.27169,-0.0604 -0.45576,-0.28218 z m 19.04469,0.20239 c 0,-0.15196 0.20836,-0.43969 0.46302,-0.63941 0.4283,-0.33589 0.43391,-0.32344 0.0749,0.16604 -0.21348,0.29104 -0.42184,0.57877 -0.46302,0.63941 -0.0412,0.0606 -0.0749,-0.0141 -0.0749,-0.16604 z m -18.66401,-0.88785 c -0.28476,-0.46076 0.0396,-0.55833 0.40245,-0.12108 0.20869,0.25145 0.22877,0.40327 0.0533,0.40327 -0.15475,0 -0.35984,-0.12699 -0.45577,-0.28219 z"
         id="path2971" />
      <path
         style="display:inline;fill:#fc8e9e;fill-opacity:1;stroke-width:0.264583"
         d="m 139.46899,114.87413 c -2.58964,-1.14552 -4.74886,-2.79908 -2.48452,-4.99818 1.25573,-1.21955 2.58948,-1.83841 4.26965,-1.98112 1.25674,-0.10675 1.43579,-0.0459 2.36159,0.80254 0.90626,0.83052 -0.43706,1.57447 0.35941,2.78636 l 0.87364,1.3293 0.82831,-0.23755 c 2.34514,-0.67258 7.66237,-0.0868 9.98982,1.10061 l 0.98768,0.50388 0.3715,-1.11946 c 0.74316,-2.23938 3.32212,-3.01299 5.3827,-1.61464 1.10868,0.75236 1.04029,1.60871 2.03278,3.11216 0.48947,0.74144 0.22274,1.00783 0.22274,2.07822 0,1.81056 -2.45835,0.89765 -4.05568,1.29987 -8.0824,5.50165 -12.16208,0.95813 -21.13962,-3.06199 z m -36.40872,2.95372 c -2.71286,-0.68311 -3.782874,-2.33679 -1.39037,-5.0617 2.45884,-2.80047 6.00948,-2.61482 6.90101,0.36081 l 0.30398,1.01459 1.14957,-0.49276 c 2.97095,-1.2735 5.81856,-1.62667 9.45377,-1.17248 l 1.4983,0.1872 v -1.42682 c 0,-1.60145 0.42146,-2.3968 1.59043,-3.00129 2.81727,-1.45686 6.39788,1.45058 6.42547,4.7362 0.008,0.91651 -1.72733,2.0716 -3.0246,2.73342 -7.89077,3.61193 -14.49212,4.24189 -22.90756,2.12283 z"
         id="path2973" />
      <path
         style="display:inline;fill:#d1863a;fill-opacity:1;stroke-width:0.264583"
         d="m 115.20898,151.42911 c -0.60189,-0.29133 -1.27458,-1.62169 -1.56105,-3.08727 -0.16901,-0.86461 -0.19447,-0.8794 -1.13866,-0.66146 -1.76236,0.4068 -4.84559,0.26715 -5.92255,-0.26826 -2.54678,-1.26612 -2.72689,-4.70601 -0.30654,-5.85453 1.04432,-0.49556 3.01312,-0.52156 3.66029,-0.0483 0.42577,0.31133 0.44487,0.46688 0.16239,1.32279 -0.30385,0.92067 -0.27932,1.01078 0.48233,1.77244 0.44136,0.44135 1.25424,0.99139 1.80642,1.22231 1.39128,0.58183 6.04176,0.79216 7.96391,0.3602 2.76368,-0.62108 4.41137,-1.11252 5.02104,-1.49759 0.57513,-0.36325 0.62311,-0.3355 1.00661,0.58236 0.64116,1.53451 0.40851,2.76699 -0.65746,3.48294 -0.49446,0.3321 -1.24283,0.60382 -1.66305,0.60382 -0.65067,0 -0.83789,-0.17232 -1.26189,-1.16148 -0.60717,-1.41646 -0.89074,-1.60756 -2.25408,-1.51903 -1.37158,0.0891 -1.7262,0.58075 -1.73121,2.40035 -0.002,0.80893 -0.0915,1.60179 -0.19844,1.76191 -0.55678,0.83385 -2.28497,1.13244 -3.40806,0.58884 z m 32.29012,-0.33223 c -0.98816,-0.43014 -1.17886,-1.02269 -0.86678,-2.69319 0.27807,-1.48839 0.10076,-1.68099 -1.5529,-1.68695 l -1.12448,-0.004 v 1.20265 c 0,0.92411 -0.15041,1.35306 -0.64943,1.85208 -0.71686,0.71686 -1.24119,0.79294 -2.48252,0.36021 -1.0913,-0.38043 -1.47988,-1.68371 -1.09971,-3.68835 0.14666,-0.77331 0.30338,-1.44275 0.34826,-1.48763 0.0449,-0.0449 0.88726,0.14878 1.87194,0.43037 3.66371,1.04773 6.96932,1.31092 9.81667,0.78161 1.55838,-0.28969 1.99197,-0.49374 2.73407,-1.28668 0.78265,-0.83626 0.86802,-1.07107 0.75806,-2.085 -0.11293,-1.04133 -0.0621,-1.16651 0.57324,-1.41228 0.99959,-0.38669 3.13027,-0.12145 3.958,0.4927 0.95427,0.70804 1.41615,2.13511 1.08233,3.34409 -0.53877,1.95126 -2.81424,3.01024 -5.7984,2.6985 -3.23062,-0.33748 -3.01305,-0.38745 -3.29687,0.7573 -0.14094,0.56845 -0.63172,1.43165 -1.09062,1.91823 -0.92232,0.97795 -1.78286,1.11495 -3.18086,0.50639 z m -0.78028,-6.52391 c -0.27266,-0.44118 0.34058,-0.94708 0.70557,-0.58209 0.30531,0.30531 0.11423,0.86972 -0.29445,0.86972 -0.12834,0 -0.31334,-0.12943 -0.41112,-0.28763 z m -28.52768,-0.18802 c -0.20919,-0.33848 0.27608,-0.93271 0.59881,-0.73325 0.42476,0.26251 0.36188,0.94432 -0.0871,0.94432 -0.2097,0 -0.43997,-0.095 -0.51171,-0.21107 z m -0.3119,-1.92865 c -0.27266,-0.44117 0.34057,-0.94708 0.70557,-0.58208 0.3053,0.3053 0.11422,0.86972 -0.29445,0.86972 -0.12834,0 -0.31335,-0.12944 -0.41112,-0.28764 z m 29.05214,-0.30768 c 0.1667,-0.50064 0.99231,-0.57181 0.99231,-0.0855 0,0.24543 -0.22621,0.41627 -0.55121,0.41627 -0.32332,0 -0.50569,-0.13674 -0.4411,-0.33073 z m 4.43595,-1.57073 c 0.006,-0.85426 0.28598,-1.20387 1.05231,-1.31241 0.59483,-0.0843 0.65969,-0.003 0.66147,0.83262 0.002,0.85186 -0.0669,0.93269 -0.85794,1.00895 -0.74713,0.072 -0.85936,0.003 -0.85584,-0.52916 z m -3.9728,-0.19316 c 0,-0.32499 0.17084,-0.55121 0.41627,-0.55121 0.24639,0 -0.41627,1.19602 -0.41627,0.55121 z m -29.72153,0.0661 c -0.33544,-0.33544 -0.17434,-0.61736 0.35278,-0.61736 0.29398,0 0.52916,0.17639 0.52916,0.39687 0,0.40281 -0.5597,0.54273 -0.88194,0.22049 z m 4.94334,-1.21267 c -0.14127,-0.32742 -0.21363,-0.791 -0.16078,-1.03016 0.13791,-0.62416 1.29108,-0.77562 1.78127,-0.23396 0.51968,0.57423 0.54429,1.63226 0.0334,1.43621 -0.20356,-0.0781 -0.44871,-0.0148 -0.54478,0.1406 -0.29141,0.47152 -0.83713,0.31767 -1.10912,-0.31269 z m 12.68892,-0.46556 c -0.83747,-0.33734 -1.27965,-1.38526 -1.08797,-2.14895 0.17882,-0.71247 1.55487,-1.66729 3.18922,-1.96189 l 0.99218,-0.17885 0.002,1.02164 c 8e-4,0.56189 0.18162,1.36676 0.40161,1.7886 0.21999,0.42183 0.36808,0.79571 0.3291,0.83085 -0.17459,0.15735 -2.63604,0.91399 -2.9244,0.89895 -0.17681,-0.009 -0.58243,-0.12188 -0.90137,-0.25035 z m 22.3458,-0.18657 c -0.23414,-0.25979 -0.50558,-0.82954 -0.60321,-1.2661 -0.39633,-1.77238 -0.0908,-1.6499 -3.77121,-1.51192 -1.85272,0.0694 -3.40773,0.2281 -3.45558,0.35254 -0.58846,1.53013 -2.19575,1.602 -2.68484,0.12006 -0.26369,-0.799 -0.40041,-0.87726 -2.06257,-1.18067 -2.26835,-0.41407 -5.35204,-1.34123 -5.35204,-1.60917 0,-0.11315 -0.32742,-0.27254 -0.7276,-0.35418 -1.06296,-0.21686 -3.62651,-2.63077 -4.33837,-4.08511 -0.90971,-1.85858 -0.84186,-4.83254 0.1675,-7.34197 0.81447,-2.02491 2.04715,-4.09573 3.13992,-5.27484 0.88836,-0.95856 0.87877,-1.06929 -0.12869,-1.48659 -0.45589,-0.18884 -1.17027,-0.63059 -1.5875,-0.98166 -1.95744,-1.64708 0.0668,-5.41248 3.52771,-6.562 1.55822,-0.51756 2.82505,-0.34477 3.83378,0.5229 0.6144,0.52849 0.72967,0.86254 0.82744,2.39806 l 0.1136,1.78403 1.09183,-0.22703 c 0.60051,-0.12487 2.28246,-0.21823 3.73767,-0.20747 2.18077,0.0161 2.99463,0.14569 4.63022,0.73708 1.09141,0.39463 2.16297,0.77878 2.38125,0.85366 0.28475,0.0977 0.52775,-0.23289 0.86011,-1.17005 0.35881,-1.01178 0.66602,-1.40243 1.3629,-1.73312 1.35082,-0.64101 2.32897,-0.52831 3.75798,0.43297 2.41734,1.62612 3.57467,4.29356 2.7386,6.31201 -0.35282,0.85177 -1.55826,1.55934 -2.65653,1.55934 -0.42361,0 -0.52935,0.11803 -0.41485,0.46302 0.0845,0.25467 0.46867,1.35599 0.85368,2.4474 0.91324,2.58887 1.11371,5.40062 0.54353,7.62353 -0.42885,1.67188 -1.74089,3.92828 -2.44024,4.19665 -0.5878,0.22555 -0.43557,0.54197 0.35576,0.73946 2.67241,0.66695 1.90408,3.37462 -1.21353,4.27658 -0.82415,0.23843 -1.62502,0.48108 -1.77973,0.53922 -0.1547,0.0581 -0.47285,-0.10684 -0.70699,-0.36663 z m 5.77641,-22.05717 c 0.87372,-0.72512 0.23455,-3.12764 -1.11437,-4.18869 -0.70734,-0.5564 -2.30484,-0.74182 -2.9359,-0.34077 -0.43142,0.27417 -1.09664,1.95253 -0.94261,2.3782 0.16925,0.46773 2.29918,2.60531 2.7498,2.75968 0.45304,0.15519 1.74534,-0.19533 2.24308,-0.60842 z m -22.20239,-3.21827 c 1.15941,-0.50472 1.40715,-0.73994 1.60406,-1.52295 0.31143,-1.23842 0.0683,-2.09248 -0.77494,-2.72204 -1.83539,-1.37031 -5.51967,1.26399 -4.71774,3.37324 0.23275,0.61216 1.48523,1.42203 2.25286,1.4567 0.14552,0.007 0.88161,-0.25665 1.63576,-0.58495 z m -34.51054,25.19161 c -0.32758,-0.13167 -0.77256,-0.17149 -0.98885,-0.0885 -0.23984,0.092 -0.85901,-0.293 -1.5872,-0.98702 -0.9143,-0.87138 -1.19397,-1.33012 -1.19397,-1.95849 0,-0.45131 0.12063,-0.94119 0.26806,-1.08862 0.45667,-2.3367 -0.97427,-2.89232 -0.53596,-2.46843 -0.79584,-1.79772 -0.60996,-4.88605 -0.79046,-6.83411 -0.10634,-1.18541 0.70122,-3.86869 1.34122,-5.1232 0.5635,-1.10454 0.52881,-1.16042 -0.88486,-1.42563 -2.497127,-0.46846 -2.969817,-3.64295 -0.91568,-6.1496 2.5045,-3.05623 5.62206,-3.22591 6.86682,-0.37375 0.29716,0.68089 0.58191,1.28512 0.63277,1.34273 0.0509,0.0576 0.77957,-0.20253 1.61934,-0.57809 2.6773,-1.19733 6.53905,-1.52867 9.62922,-0.8262 0.68201,0.15504 0.69607,0.12963 0.81155,-1.46687 0.10093,-1.39528 0.2372,-1.74424 0.96522,-2.47182 0.74289,-0.74244 1.01873,-0.84556 2.23115,-0.83405 2.34214,0.0222 4.9819,1.81859 5.61837,3.82333 0.31993,1.00772 0.19167,2.40452 -0.26737,2.91176 -0.22624,0.24999 -0.91383,0.67301 -1.52798,0.94004 -0.61416,0.26703 -1.155,0.5104 -1.20187,0.5408 -0.0469,0.0304 0.51275,0.79737 1.24361,1.70435 1.55824,1.93377 2.49233,3.74336 3.06153,5.93103 1.64077,6.30617 -1.65882,10.17155 -10.26266,12.02245 -2.04453,0.43983 -2.16273,0.50443 -2.39317,1.30792 -0.36253,1.26407 -1.36135,1.4241 -2.25469,0.36124 l -0.68648,-0.81675 -3.28022,-0.0749 -3.28022,-0.0749 -0.33236,1.12565 c -0.32747,1.10906 -0.81828,1.91869 -1.14324,1.88586 -0.0913,-0.009 -0.43407,-0.12449 -0.76165,-0.25616 z m -1.91793,-4.6905 c 0,-0.11052 -0.23813,-0.34965 -0.52917,-0.53141 -0.57934,-0.36181 -0.71751,-0.091 -0.21167,0.41485 0.35838,0.35837 0.74084,0.41855 0.74084,0.11656 z m 6.62005,-5.09659 c 2.12639,-2.2763 1.82939,-7.63114 -0.88503,-8.57716 -0.97346,-0.33926 -2.02907,-0.46188 -2.96348,-0.002 -1.4325,0.7043 -2.084,2.55979 -2.07347,4.56261 0.01,1.80534 0.8005,3.16425 1.78888,4.15264 0.53684,0.53683 0.92465,0.66399 2.02508,0.66399 1.17336,0 1.46409,-0.11028 2.10802,-0.79961 z m 14.44529,-1.2596 c 2.21442,-1.05081 2.95636,-5.88322 1.03856,-8.16239 -1.29883,-1.54358 -3.93914,-2.14737 -5.51077,-1.1176 -1.93893,1.27043 -1.68882,6.53615 0.30341,8.64432 1.22635,1.29771 2.60505,1.37771 4.1688,0.63567 z m -20.09366,-11.55536 c 1.5181,-1.5549 1.62326,-1.87347 1.00995,-3.05948 -0.84478,-1.63363 -2.55731,-1.57707 -4.05974,0.13409 -1.40606,1.60143 -1.32832,3.66127 0.15052,3.98801 0.40533,0.0896 0.85603,0.20254 1.00155,0.25108 0.14552,0.0485 0.31488,0.0977 0.37636,0.10915 0.0615,0.0115 0.74609,-0.62879 1.52136,-1.42285 z m 21.91365,-2.68089 c 1.49614,-0.98032 0.30628,-3.58643 -1.98229,-4.34172 -1.55101,-0.51188 -2.41293,-0.14979 -2.88626,1.21253 -0.57668,1.65974 -0.25358,2.40735 1.37311,3.17724 1.48449,0.70259 2.36835,0.69044 3.49544,-0.0481 z m -0.58177,22.30828 0.0537,-1.99593 0.92604,-0.15345 c 1.78953,-0.29653 2.89168,-0.17801 3.43958,0.36989 0.60662,0.60662 0.65407,1.0239 0.22381,1.96822 -0.45335,0.995 -1.42972,1.51094 -3.15545,1.66742 l -1.54144,0.13977 z"
         id="path2969" />
      <path
         style="display:inline;fill:#ff8d4c;fill-opacity:1;stroke-width:0.264583"
         d="m -328.85966,211.24551 c -0.21769,-0.16183 -2.17567,-0.36462 -4.41098,-0.45686 -3.72274,-0.15361 -11.24442,-0.88682 -11.47863,-1.11893 -0.35184,-0.3487 5.51894,-6.92804 8.37022,-9.38043 1.20055,-1.03259 2.19487,-2.02002 2.20962,-2.19428 0.0147,-0.17426 0.007,-0.69177 -0.018,-1.15001 -0.0938,-1.74581 0.82838,-1.32322 1.55831,0.71407 0.28416,0.79311 1.03537,2.90515 1.66937,4.69341"
         id="path2969-3"
         clip-path="url(#clipPath8119)"
         transform="translate(431.92632,-78.331222)" />
      <path
         style="fill:#d2521b;fill-opacity:1;stroke-width:0.264583"
         d="m 99.42756,132.53957 c -6.83902,-0.38654 -12.05855,-0.87622 -12.63097,-1.18499 -0.42587,-0.22972 4.98022,-6.45023 7.49217,-8.62085 2.18405,-1.88728 3.204505,-2.68141 3.055499,-3.13064 -0.105175,-0.31708 0.0178,-2.65621 0.629773,-2.1838 1.543905,1.47193 2.876538,5.76416 3.811448,9.36623 0.53292,2.05326 0.73192,3.81405 1.28119,4.87174 0.30374,0.55866 4.80995,8.7299 4.4847,8.80156 -0.18492,0.0407 -0.23007,0.22341 -0.37315,0.10107 -1.02729,-0.87837 -3.55357,-4.50753 -4.37068,-7.43595 -0.14617,-0.52384 -3.159544,-0.43869 -3.379976,-0.58432 z m -3.175,-2.61936 c 0.49897,-0.25757 0.64259,-0.51763 0.58464,-1.05864 -0.0855,-0.79792 0.63835,-1.29858 1.0094,-0.6982 0.17955,0.29052 0.29082,0.2916 0.63475,0.006 0.84599,-0.7021 0.23572,-2.40369 -0.85862,-2.39408 -0.30416,0.003 -0.23567,0.10936 0.21733,0.33854 0.43676,0.22096 0.66146,0.55669 0.66146,0.98829 0,0.68018 -0.35512,0.75066 -1.92905,0.38289 -0.72646,-0.16975 -0.5258,-0.64273 0.29102,-0.68598 0.44762,-0.0237 0.4742,-0.0583 0.11668,-0.15169 -0.6295,-0.16451 -0.59337,-0.2773 0.38012,-1.18668 0.66332,-0.61963 0.76477,-0.83605 0.47565,-1.01473 -0.44829,-0.27707 -0.78963,-0.0977 -0.78963,0.41502 0,0.48547 -0.13408,0.47897 -0.93418,-0.0453 -1.10161,-0.7218 -2.63497,-0.20341 -3.40494,1.15112 -0.12001,0.21112 -0.0555,0.27751 0.18136,0.18662 0.22581,-0.0866 0.63338,0.26048 1.05648,0.89983 0.60128,0.9086 0.64312,1.10344 0.32912,1.53285 -0.33988,0.46481 -0.36951,0.45291 -0.53736,-0.21587 -0.0977,-0.3893 -0.42526,-0.92493 -0.72789,-1.1903 -0.53265,-0.46708 -0.54457,-0.46701 -0.37308,0.002 0.0974,0.26657 0.17716,1.07024 0.17716,1.78594 v 1.30128 l 1.38906,-0.004 c 0.76399,-0.002 1.68672,-0.15755 2.05052,-0.34535 z m -2.64583,-0.16471 c 0,-0.15389 0.44648,-0.29601 0.99219,-0.31582 0.61419,-0.0223 0.76539,-0.0797 0.39687,-0.1507 -0.64497,-0.12422 -0.82735,-0.60702 -0.22929,-0.60702 0.2013,0 0.42828,-0.23813 0.50439,-0.52917 0.16119,-0.61639 1.24626,-0.7388 1.24626,-0.14059 0,0.21371 -0.14883,0.35229 -0.33073,0.30794 -0.1819,-0.0443 -0.24007,-0.0302 -0.12926,0.0314 0.1108,0.0616 0.33268,0.35715 0.49304,0.6568 0.25719,0.48056 0.22669,0.52785 -0.25857,0.40095 -0.33464,-0.0875 -0.52778,-0.0249 -0.49304,0.15973 0.0339,0.18003 -0.40056,0.3367 -1.06738,0.38495 -0.66532,0.0481 -1.12448,-0.0329 -1.12448,-0.19844 z m -0.51126,-0.79573 c -0.0136,-0.69579 0.0555,-0.83938 0.29096,-0.60395 0.22837,0.22838 0.23304,0.46626 0.0179,0.91282 -0.27325,0.56718 -0.29205,0.54838 -0.30887,-0.30887 z m 0.94329,-2.12422 c -0.85299,-1.28897 -0.85896,-1.43427 -0.0736,-1.7921 0.52307,-0.23833 0.73532,-0.17975 1.32292,0.36511 0.38495,0.35694 0.6999,0.53968 0.6999,0.40608 0,-0.13359 -0.18147,-0.3935 -0.40327,-0.57757 -0.54941,-0.45597 -0.29853,-0.63487 0.38061,-0.27141 0.66514,0.35598 0.68624,0.61935 0.11897,1.48512 l -0.43285,0.66062 -0.63502,-0.93452 c -0.34926,-0.51398 -0.76037,-0.93451 -0.91358,-0.93451 -0.15321,0 0.0297,0.36633 0.40641,0.81406 0.66359,0.78863 0.92302,1.83178 0.45556,1.83178 -0.12619,0 -0.54291,-0.4737 -0.92605,-1.05266 z m 4.33047,0.25888 c 0,-0.14552 -0.20836,-0.26276 -0.46302,-0.26054 -0.3957,0.003 -0.40532,0.0413 -0.0661,0.26054 0.49932,0.32269 0.52916,0.32269 0.52916,0 z"
         id="path2967" />
      <path
         style="fill:#4ea966;fill-opacity:1"
         d="m -574.60657,-400.5249 c -13.57028,-2.56693 -32.21781,-10.94771 -42.08131,-18.91264 l -2.84748,-2.29939 5.47938,-9.08906 c 6.68792,-11.09376 9.99858,-20.01434 13.18649,-35.53094 3.11383,-15.156 6.91749,-23.33509 14.1239,-30.37086 6.21107,-6.06399 16.5428,-11.54252 25.12916,-13.32504 11.17843,-2.32063 25.40369,2.64111 36.1825,12.62039 3.22346,2.98436 6.1589,5.42611 6.52319,5.42611 0.9504,0 5.54894,-10.15949 5.56057,-12.28491 0.0157,-2.87282 5.18882,-17.71509 6.17438,-17.71509 1.73925,0 8.37536,3.12015 12.08539,5.68227 2.37259,1.6385 3.73794,3.36622 3.71716,4.70373 -5.87194,8.30377 -12.56099,14.3629 -18.11448,21.80001 -1.70158,2.14842 -2.92704,4.06317 -2.72323,4.25501 0.2038,0.19183 2.05787,1.04805 4.12016,1.90269 9.11063,4.98238 14.46463,11.93207 17.38112,19.89852 2.47329,7.23802 2.49295,21.46886 0.0394,28.50623 -2.38076,6.82858 -9.87194,15.34407 -12.28188,16.84703 -4.52492,3.40869 -7.62013,5.83088 -11.39034,8.17373 -1.81498,1.13347 -1.81367,1.03945 0.0427,-3.04985 2.32939,-5.13125 2.50557,-11.49454 0.40143,-14.49863 -2.06195,-2.93513 -2.77432,-3.53827 -6.01286,-5.70423 -4.98684,-3.38416 -11.97932,-3.73136 -18.01543,-0.89453 -7.19683,3.38235 -10.37611,16.91065 -5.41378,23.03646 1.375,1.69738 3.70554,3.9133 5.17898,4.92426 3.37485,3.01705 3.33075,2.05687 4.82102,3.17225 0,3.16345 -28.87162,5.07102 -41.26617,2.72648 z"
         id="path524-6"
         clip-path="url(#clipPath606-2)"
         transform="matrix(0.03384262,0.00780398,-0.00780398,0.03384262,166.99275,160.38975)" />
      <path
         style="fill:#4ea966;fill-opacity:1"
         d="m -574.60657,-400.5249 c -13.57028,-2.56693 -32.21781,-10.94771 -42.08131,-18.91264 l -2.84748,-2.29939 5.47938,-9.08906 c 6.68792,-11.09376 9.99858,-20.01434 13.18649,-35.53094 3.11383,-15.156 6.91749,-23.33509 14.1239,-30.37086 6.21107,-6.06399 16.5428,-11.54252 25.12916,-13.32504 11.17843,-2.32063 25.40369,2.64111 36.1825,12.62039 3.22346,2.98436 6.1589,5.42611 6.52319,5.42611 0.9504,0 5.54894,-10.15949 5.56057,-12.28491 0.0157,-2.87282 5.18882,-17.71509 6.17438,-17.71509 1.73925,0 8.37536,3.12015 12.08539,5.68227 2.37259,1.6385 3.73794,3.36622 3.71716,4.70373 -5.87194,8.30377 -12.56099,14.3629 -18.11448,21.80001 -1.70158,2.14842 -2.92704,4.06317 -2.72323,4.25501 0.2038,0.19183 2.05787,1.04805 4.12016,1.90269 9.11063,4.98238 14.46463,11.93207 17.38112,19.89852 2.47329,7.23802 2.49295,21.46886 0.0394,28.50623 -2.38076,6.82858 -9.87194,15.34407 -12.28188,16.84703 -4.52492,3.40869 -7.62013,5.83088 -11.39034,8.17373 -1.81498,1.13347 -1.81367,1.03945 0.0427,-3.04985 2.32939,-5.13125 2.50557,-11.49454 0.40143,-14.49863 -2.06195,-2.93513 -2.77432,-3.53827 -6.01286,-5.70423 -4.98684,-3.38416 -11.97932,-3.73136 -18.01543,-0.89453 -7.19683,3.38235 -10.37611,16.91065 -5.41378,23.03646 1.375,1.69738 3.70554,3.9133 5.17898,4.92426 3.37485,3.01705 3.33075,2.05687 4.82102,3.17225 0,3.16345 -28.87162,5.07102 -41.26617,2.72648 z"
         id="path524-6-7"
         clip-path="url(#clipPath606-2-4)"
         transform="matrix(0.0336364,-0.0086497,0.0086497,0.0336364,146.54398,148.94744)" />
      <path
         style="display:inline;fill:#673919;stroke-width:0.264583"
         d="m 115.78639,150.10162 c 0.71382,0.0568 1.47429,-0.0719 1.98437,-0.33562 0.77643,-0.40151 1.06499,-0.32747 1.06118,0.11356 0.0836,1.22413 -0.59484,1.8181 -1.92083,1.8241 -0.57477,0.0463 -1.22952,-0.009 -1.69272,-0.23578 -0.60558,-0.29631 -0.88926,-0.86994 -0.77762,-1.18076 0.0926,-0.2578 0.4274,-0.29765 1.34562,-0.1855 z m 30.6191,-0.28266 c -0.10034,-0.69869 0.17796,-0.8403 1.38794,-0.33475 0.52242,0.21829 1.44838,0.39688 2.05769,0.39688 1.09108,0 1.13039,-0.14614 1.05774,0.55299 -0.0657,0.63231 -1.60012,1.3493 -2.59358,1.12665 -0.71744,-0.062 -1.87567,-0.69807 -1.90979,-1.74177 z m -6.78398,-1.50802 c 0,-0.42409 0.20413,-0.47541 0.96276,-0.0969 0.56108,0.2799 1.18739,0.3586 1.98438,0.24936 0.87105,-0.11939 1.33129,0.0717 1.33129,0.33412 -0.8514,2.75801 -4.16224,2.1199 -4.27843,-0.48654 z m -14.2613,-1.06149 c 0.87684,-0.32605 1.61933,-1.19999 1.46371,0.13206 -0.23792,0.64179 -0.0725,1.09301 -1.42965,1.7348 -2.3087,0.86017 -2.60153,-0.32963 -2.39758,-0.93793 0.6998,-0.3658 1.66069,-0.5358 2.36352,-0.92893 z m -17.88647,0.49082 c -1.55402,-0.24462 -2.7809,-1.86886 -2.91472,-3.02018 -0.13289,-1.14339 0.52508,-2.57789 1.39999,-3.15115 0.81969,-0.53708 3.18114,-0.61969 3.18114,-0.2024 -0.79233,0.96497 -1.37245,1.81876 -1.39029,3.01603 0,1.07009 0.31224,1.88075 0.82259,2.6318 0.72225,1.06288 0.31405,0.94829 -1.09871,0.7259 z m 49.11534,0.15981 c 0,-0.0687 0.40635,-0.88227 0.77016,-1.45857 0.37994,-0.60188 0.66145,-1.4419 0.66145,-1.97377 -0.0888,-1.92732 -0.82713,-2.24146 -1.5875,-3.15115 0,-0.38354 1.46127,-0.49118 2.47762,-0.0665 1.24427,0.51989 2.23469,2.06713 2.23469,3.30236 0,1.38034 -1.46218,2.82026 -3.19095,3.3359 -0.69123,0.20617 -1.36547,0.0804 -1.36547,0.0118 z m -9.85354,-3.21384 c -0.2435,-0.39401 0.0859,-1.0281 0.57489,-0.79283 0.54009,0.25987 0.33411,0.72096 0.24354,0.86751 -0.33901,0.27512 -0.64703,0.18586 -0.81843,-0.0747 z m -28.60448,-0.82593 c 0.33536,-0.49302 1.15768,-0.228 1.07,0.37424 -0.0262,0.18025 -0.40384,0.39842 -0.63424,0.39842 -0.29278,0.0156 -0.59487,-0.53877 -0.43576,-0.77266 z m -0.18998,-2.04174 c 0.31292,-0.31292 1.11952,0.24366 0.89145,0.61269 -0.63032,0.95577 -1.35485,0.0111 -0.89145,-0.61269 z m 29.16238,0.0673 c 0.22428,-0.27419 0.85087,-0.16683 0.8757,0.0475 0.0251,0.21683 -0.29679,0.63508 -0.55145,0.63285 -0.55948,0.11625 -0.61308,-0.62633 -0.32425,-0.68037 z m -29.65317,-1.73505 c 0,-0.24253 0.56595,-0.40465 0.72238,-0.35251 0.15644,0.0522 0.3892,0.22981 0.45288,0.35251 0.10418,0.20076 -0.15942,0.54506 -0.43603,0.52511 -0.16445,-0.0119 -0.73923,-0.28257 -0.73923,-0.52511 z m 29.91969,0.19578 c 0,-0.31467 0.33019,-0.76796 0.54847,-0.41371 0.11451,0.18584 0.27897,0.24024 0.27897,0.45852 0,0.21829 -0.17859,0.35207 -0.39688,0.35207 -0.21828,0 -0.43056,-0.17859 -0.43056,-0.39688 z m -12.36996,-1.63702 c -1.37738,-0.90655 -1.37457,-2.44556 0.0917,-3.39787 0.99538,-0.64648 1.99179,-0.71032 1.52154,-0.14372 -0.29218,0.35207 0.0447,1.39799 0.76029,3.17269 0.26526,0.6579 -1.38956,1.01652 -2.37352,0.3689 z m 24.65239,-1.40484 c -0.15704,-0.37329 -0.37902,-1.13108 -0.46912,-1.69454 -0.19145,-1.19725 0.28103,-1.60414 1.86272,-1.60414 0.92219,0 1.92178,0.72577 2.00177,1.33606 0.19088,1.45639 -0.782,2.21025 -1.48355,2.56484 -1.09708,0.55451 -1.45673,0.47953 -1.91182,-0.60222 z m -56.36509,-0.72733 c -0.57674,-0.7332 -0.44541,-2.16593 0.0847,-2.33968 0.29914,-0.098 0.7818,0.89685 1.0901,2.21573 0.0463,1.11809 -0.93834,0.41786 -1.17482,0.12395 z m 2.40952,0.28347 c -0.15638,-0.18843 -0.5306,-0.96738 -0.83159,-1.731 -0.61742,-1.5664 -0.42891,-1.73611 1.0279,-0.92538 0.77301,0.43018 0.82048,0.53808 0.66936,1.52135 -0.1911,1.24337 -0.47108,1.61048 -0.86567,1.13503 z m 24.07545,0.33262 c -0.0967,-0.076 -0.3266,-1.16613 -0.3266,-1.82164 0,-0.725 -0.16709,-1.37647 -0.42657,-1.6632 -0.39737,-0.43908 -0.38056,-0.48291 0.24549,-0.64004 0.7069,-0.17742 1.68848,0.0116 2.2316,0.47305 0.88814,0.75464 0.82281,2.23867 0.106,2.79871 -0.39837,0.31124 -1.52635,1.09165 -1.82992,0.85312 z m -14.77315,-5.92147 c -1.91748,-1.64935 0.52478,-4.58594 3.1997,-3.84736 1.19355,0.32956 2.25102,1.31509 2.25102,2.09791 0,0.3122 -0.40481,0.97246 -0.89959,1.46723 -0.80671,0.80671 -1.05102,0.89958 -2.36649,0.89958 -1.15532,0 -1.61937,-0.13113 -2.18464,-0.61736 z m 31.58498,0.20493 c -1.69596,-0.92036 -1.69448,-2.88788 0.003,-3.79208 2.10632,-1.12208 5.14155,0.54675 4.6947,2.58125 -0.3155,1.43643 -3.00461,2.12956 -4.69756,1.21083 z m -40.57485,-1.41222 c -2.83069,-1.28563 -3.55073,-4.81996 -1.74388,-8.55984 1.64525,-3.40539 4.84206,-5.78526 9.17301,-6.82885 5.24093,-1.26286 10.42364,0.002 13.83226,3.37628 3.40834,3.37382 3.59856,7.4667 0.44414,9.55611 -1.04776,0.694 -1.52878,0.84108 -2.74624,0.83974 -0.86051,-0.001 -1.80699,-0.1815 -2.26974,-0.43297 -0.43657,-0.23723 -1.14225,-0.61292 -1.56819,-0.83486 -0.42594,-0.22194 -1.6376,-0.45892 -2.69258,-0.52662 -2.42007,-0.15531 -4.20559,0.43631 -5.90321,1.95601 -0.66721,0.59728 -1.59415,1.28189 -2.05986,1.52135 -1.11546,0.57355 -3.12246,0.54372 -4.46571,-0.0663 z m 5.23807,-1.26178 c 0,-0.21446 0.47593,-0.52409 0.68604,-0.88545 0.25722,-0.4424 0.47758,-0.96233 0.62785,-1.48009 0.13085,-0.45082 0.20856,-0.89999 0.21121,-1.2949 0.003,-0.41813 -0.0569,-0.87747 -0.16477,-1.34058 -0.13823,-0.59326 -0.35553,-1.19272 -0.62164,-1.7197 -0.25332,-0.50167 -0.55087,-0.93765 -0.86655,-1.24008 -0.50121,-0.48019 -1.22045,-0.73829 -1.94311,-0.76936 -0.76893,-0.0331 -1.54174,0.19089 -2.06,0.67776 -0.42164,0.39612 -0.74274,0.86858 -0.97272,1.38565 -0.27061,0.60845 -0.41504,1.27865 -0.44863,1.95888 -0.0234,0.4737 0.007,0.95227 0.0859,1.41822 0.11202,0.66129 0.32186,1.29718 0.61472,1.85773 0.38757,0.74185 0.92054,1.35175 1.56456,1.71392 0.51176,0.2878 1.09365,0.41918 1.72843,0.33604 0.557,-0.0729 1.25843,-0.35109 1.55872,-0.61809 z m -3.32313,-1.95484 c -1.36341,-1.07245 -1.51866,-3.95723 -0.27965,-5.19623 1.32227,-1.32227 3.58372,-0.36299 3.96755,1.68298 0.57207,3.04939 -1.62127,5.13886 -3.6879,3.51325 z m 17.84215,0.13364 c 1.23019,-0.63615 1.82511,-1.84327 1.82626,-3.70552 0.002,-3.95312 -3.03507,-6.54112 -5.74085,-4.89131 -1.20275,0.73336 -1.74414,1.93565 -1.7175,3.81414 0.053,3.74155 2.92662,6.18174 5.63209,4.78269 z m -2.86397,-1.763 c -0.32459,-0.15664 -0.83061,-0.78149 -1.12447,-1.38854 -1.63606,-3.37963 1.1166,-6.48241 3.57232,-4.02669 2.56317,2.56316 0.60744,6.88971 -2.44785,5.41523 z m 32.33729,4.97985 c -0.43816,-0.19093 -1.25876,-0.79592 -1.82356,-1.34442 -2.58057,-2.50606 -6.23094,-2.96542 -9.76652,-1.229 -1.57656,0.7743 -2.00036,0.87145 -3.36938,0.77242 -1.88708,-0.1365 -3.22597,-1.05913 -4.16995,-2.87355 -0.49905,-0.95921 -0.58092,-1.4183 -0.4453,-2.49698 0.22295,-1.77327 1.41327,-3.77009 3.24844,-5.44943 6.52696,-5.97271 18.91117,-3.68657 22.61444,4.17466 2.14281,4.5487 0.11719,8.83703 -4.15853,8.80381 -0.73315,-0.006 -1.69149,-0.16657 -2.12964,-0.35751 z m 2.06191,-1.05082 c 0.46827,-0.1982 1.06752,-0.60311 1.33168,-0.89981 0.98669,-1.10823 -0.44706,-3.7735 -2.22072,-4.12824 -0.85126,-0.17025 -2.49155,0.48873 -3.12931,1.25719 -0.74546,0.89822 0.50038,3.43382 1.8831,3.83259 1.19167,0.34367 1.17637,0.34411 2.13525,-0.0617 z m -13.48954,-2.77139 0.80824,-0.80823 -0.4924,-1.09195 c -0.61424,-1.36214 -1.54271,-2.11212 -2.61319,-2.11084 -1.00442,0.001 -2.35504,0.78756 -2.97326,1.73108 -0.43531,0.66438 -0.43442,0.74278 0.0179,1.58273 1.01337,1.88171 3.71023,2.23968 5.2527,0.69721 z m 16.04213,-1.66383 c 0.0281,-1.84859 -0.22595,-2.73747 -1.03577,-3.62411 -1.60774,-1.76025 -3.98257,-1.2587 -5.15202,1.08807 -0.37003,0.74255 -0.67278,1.69238 -0.67278,2.11074 v 0.76063 l 0.89114,-0.94488 c 0.76002,-0.80586 1.06278,-0.94488 2.05779,-0.94488 0.64166,0 1.43287,0.18647 1.75824,0.41436 0.64874,0.4544 1.63201,2.1994 1.66143,2.94854 0.04,1.01789 0.47322,-0.57473 0.49197,-1.80847 z m -14.53124,-1.03463 c 0.80554,-3.35786 -1.0025,-6.10186 -3.77548,-5.72992 -1.82029,0.24415 -3.27056,2.19244 -3.5471,4.7652 l -0.14737,1.37097 0.84725,-0.99771 c 1.71357,-2.01788 3.47515,-2.33281 4.92712,-0.88084 1.11931,1.09289 1.05573,4.041 1.69558,1.4723 z M 100.86155,113.1219 c 0.65686,-1.28754 2.44965,-2.92106 3.69602,-3.19247 1.24582,-0.27129 1.27687,-0.12498 2.36772,0.28274 1.36602,0.51056 1.16806,1.6912 -0.90046,1.60951 -1.58372,-0.0626 -1.74962,-0.31301 -2.89334,0.83069 -1.03108,1.03107 -1.39968,1.63676 -1.39968,2.69309 -0.004,0.25565 0.19479,0.46213 0.10456,1.08801 -0.70007,1.01766 -1.12891,0.92659 -1.36867,0.6947 -0.522195,-0.50506 -0.707151,-2.21437 0.39385,-4.00627 z m 62.80729,3.24216 c -0.13883,-0.21494 0.24377,-0.23582 0.19778,-1.03619 -0.23505,-1.3747 -0.76461,-2.10461 -1.22709,-2.64718 -0.94672,-0.94955 -2.16071,-0.80884 -3.24541,-0.93041 -1.50337,-0.70487 -1.55053,-1.35483 -0.13997,-1.83544 1.21294,-0.40031 2.75693,0.16384 4.14904,1.51599 1.43501,1.43295 2.91423,4.40894 1.53595,5.98538 -0.0812,0.25894 -1.12928,-0.83383 -1.2703,-1.05215 z m -35.28641,-4.22792 c 0,-1.00833 -0.84215,-2.16957 -1.98187,-2.88823 -1.07341,-0.58106 -2.11639,-0.83643 -3.14208,-0.0245 -0.5344,-0.0213 -1.92697,-0.20291 -1.80804,-0.68983 0.42329,-1.61792 3.22725,-2.0191 5.45995,-0.78118 1.82473,1.01172 2.89547,2.43375 3.0509,4.0513 0.0717,0.74573 0.0251,1.1807 -0.11513,1.35136 -0.54032,0.01 -1.44352,-0.60332 -1.46373,-1.01892 z m 7.21469,0.95492 c -0.39256,-1.03253 0.32535,-3.0066 1.4393,-4.12055 1.98972,-1.98973 4.8753,-2.55989 6.41189,-1.26694 0.44773,0.37674 0.81405,0.79346 0.81405,0.92604 0,0.37093 -0.63252,1.0018 -2.00362,0.51483 -1.21506,-0.43155 -1.45867,-0.68955 -2.69734,-0.0709 -1.48915,0.74372 -2.22857,1.48404 -2.32015,2.73038 -0.0718,0.74833 -1.43428,1.79603 -1.64413,1.28714 z"
         id="path2963" />
      <path
         style="display:inline;fill:#313c50;fill-opacity:1;stroke-width:0.264583"
         d="m 121.62498,120.06549 c 1.87573,-3.03645 5.86815,-0.006 4.8719,3.36907 -0.39904,1.35167 -1.43285,2.16688 -2.55689,2.11774 -2.02952,-0.0887 -3.54715,-3.49221 -2.31501,-5.48681 z"
         id="path2965-13" />
      <path
         style="display:inline;fill:#313c50;fill-opacity:1;stroke-width:0.264583"
         d="m 107.56815,121.71062 c 2.37452,-2.32201 5.79089,1.50955 3.87122,4.4708 -0.76662,1.18259 -1.94413,1.54041 -3.02192,1.21757 -1.94603,-0.5829 -2.52553,-4.04921 -0.8493,-5.68837 z"
         id="path2965-13-5" />
      <path
         style="display:inline;fill:#ffffff;fill-opacity:1;stroke-width:0.116835"
         d="m 108.53095,122.23743 c 1.04854,-1.02535 2.55715,0.66659 1.70946,1.97423 -0.33853,0.52221 -0.85849,0.68021 -1.33443,0.53765 -0.85933,-0.25739 -1.11522,-1.78805 -0.37503,-2.51188 z"
         id="path2965-13-5-1" />
      <path
         style="display:inline;fill:#ffffff;fill-opacity:1;stroke-width:0.116835"
         d="m 124.35663,122.11443 c -0.80382,1.22664 -2.64064,-0.10177 -2.09362,-1.56097 0.21846,-0.58273 0.69235,-0.84873 1.1878,-0.81173 0.89456,0.0668 1.47326,1.50677 0.90582,2.3727 z"
         id="path2965-13-5-1-7" />
      <path
         style="display:inline;fill:#ffffff;fill-opacity:1;stroke-width:0.0722888"
         d="m 108.08085,125.08344 c 0.64876,-0.63441 1.58218,0.41244 1.05769,1.22151 -0.20946,0.3231 -0.53117,0.42086 -0.82565,0.33266 -0.53169,-0.15926 -0.69001,-1.10632 -0.23204,-1.55417 z"
         id="path2965-13-5-1-0" />
      <path
         style="display:inline;fill:#ffffff;fill-opacity:1;stroke-width:0.0722888"
         d="m 125.6325,123.34389 c 0.19871,0.88536 -1.18248,1.12921 -1.5951,0.25776 -0.16478,-0.34801 -0.0789,-0.67309 0.15096,-0.87724 0.41495,-0.36862 1.30385,-0.006 1.44414,0.61948 z"
         id="path2965-13-5-1-0-1" />
    </g>
  </g>
</svg>
