<?xml version="1.0" encoding="UTF-8" standalone="no"?>
<!-- Created with Inkscape (http://www.inkscape.org/) -->

<svg
   version="1.1"
   id="svg2569"
   width="441.50729"
   height="430.93933"
   viewBox="0 0 441.50729 430.93933"
   xml:space="preserve"
   xmlns="http://www.w3.org/2000/svg"
   xmlns:svg="http://www.w3.org/2000/svg"><defs
     id="defs2573"><clipPath
       clipPathUnits="userSpaceOnUse"
       id="clipPath3856"><path
         style="fill:none;fill-rule:evenodd;stroke:#000000;stroke-width:0.851382;stroke-opacity:1"
         id="path3858"
         d="M 188.98505,465.54156 A 220.75365,215.46967 0 0 1 44.428634,195.7655 220.75365,215.46967 0 0 1 320.5599,54.184041 220.75365,215.46967 0 0 1 466.10996,323.45063 220.75365,215.46967 0 0 1 190.50245,466.00103" /></clipPath><clipPath
       clipPathUnits="userSpaceOnUse"
       id="clipPath3860"><path
         style="fill:none;fill-rule:evenodd;stroke:#000000;stroke-width:0.851382;stroke-opacity:1"
         id="path3862"
         d="M 188.98505,465.54156 A 220.75365,215.46967 0 0 1 44.428634,195.7655 220.75365,215.46967 0 0 1 320.5599,54.184041 220.75365,215.46967 0 0 1 466.10996,323.45063 220.75365,215.46967 0 0 1 190.50245,466.00103" /></clipPath><clipPath
       clipPathUnits="userSpaceOnUse"
       id="clipPath3864"><path
         style="fill:none;fill-rule:evenodd;stroke:#000000;stroke-width:0.851382;stroke-opacity:1"
         id="path3866"
         d="M 188.98505,465.54156 A 220.75365,215.46967 0 0 1 44.428634,195.7655 220.75365,215.46967 0 0 1 320.5599,54.184041 220.75365,215.46967 0 0 1 466.10996,323.45063 220.75365,215.46967 0 0 1 190.50245,466.00103" /></clipPath><clipPath
       clipPathUnits="userSpaceOnUse"
       id="clipPath7716"><g
         id="g7720"><path
           style="fill:none;fill-rule:evenodd;stroke:#000000;stroke-width:0.851382;stroke-opacity:1"
           id="path7718"
           d="M 188.98505,465.54156 A 220.75365,215.46967 0 0 1 44.428634,195.7655 220.75365,215.46967 0 0 1 320.5599,54.184041 220.75365,215.46967 0 0 1 466.10996,323.45063 220.75365,215.46967 0 0 1 190.50245,466.00103" /></g></clipPath><clipPath
       clipPathUnits="userSpaceOnUse"
       id="clipPath7722"><g
         id="g7726"><path
           style="fill:none;fill-rule:evenodd;stroke:#000000;stroke-width:0.851382;stroke-opacity:1"
           id="path7724"
           d="M 188.98505,465.54156 A 220.75365,215.46967 0 0 1 44.428634,195.7655 220.75365,215.46967 0 0 1 320.5599,54.184041 220.75365,215.46967 0 0 1 466.10996,323.45063 220.75365,215.46967 0 0 1 190.50245,466.00103" /></g></clipPath><clipPath
       clipPathUnits="userSpaceOnUse"
       id="clipPath7728"><g
         id="g7732"><path
           style="fill:none;fill-rule:evenodd;stroke:#000000;stroke-width:0.851382;stroke-opacity:1"
           id="path7730"
           d="M 188.98505,465.54156 A 220.75365,215.46967 0 0 1 44.428634,195.7655 220.75365,215.46967 0 0 1 320.5599,54.184041 220.75365,215.46967 0 0 1 466.10996,323.45063 220.75365,215.46967 0 0 1 190.50245,466.00103" /></g></clipPath><clipPath
       clipPathUnits="userSpaceOnUse"
       id="clipPath7734"><g
         id="g7738"><path
           style="fill:none;fill-rule:evenodd;stroke:#000000;stroke-width:0.851382;stroke-opacity:1"
           id="path7736"
           d="M 188.98505,465.54156 A 220.75365,215.46967 0 0 1 44.428634,195.7655 220.75365,215.46967 0 0 1 320.5599,54.184041 220.75365,215.46967 0 0 1 466.10996,323.45063 220.75365,215.46967 0 0 1 190.50245,466.00103" /></g></clipPath><clipPath
       clipPathUnits="userSpaceOnUse"
       id="clipPath7740"><g
         id="g7744"><path
           style="fill:none;fill-rule:evenodd;stroke:#000000;stroke-width:0.851382;stroke-opacity:1"
           id="path7742"
           d="M 188.98505,465.54156 A 220.75365,215.46967 0 0 1 44.428634,195.7655 220.75365,215.46967 0 0 1 320.5599,54.184041 220.75365,215.46967 0 0 1 466.10996,323.45063 220.75365,215.46967 0 0 1 190.50245,466.00103" /></g></clipPath><clipPath
       clipPathUnits="userSpaceOnUse"
       id="clipPath7746"><g
         id="g7750"><path
           style="fill:none;fill-rule:evenodd;stroke:#000000;stroke-width:0.851382;stroke-opacity:1"
           id="path7748"
           d="M 188.98505,465.54156 A 220.75365,215.46967 0 0 1 44.428634,195.7655 220.75365,215.46967 0 0 1 320.5599,54.184041 220.75365,215.46967 0 0 1 466.10996,323.45063 220.75365,215.46967 0 0 1 190.50245,466.00103" /></g></clipPath><clipPath
       clipPathUnits="userSpaceOnUse"
       id="clipPath7752"><g
         id="g7756"><path
           style="fill:none;fill-rule:evenodd;stroke:#000000;stroke-width:0.851382;stroke-opacity:1"
           id="path7754"
           d="M 188.98505,465.54156 A 220.75365,215.46967 0 0 1 44.428634,195.7655 220.75365,215.46967 0 0 1 320.5599,54.184041 220.75365,215.46967 0 0 1 466.10996,323.45063 220.75365,215.46967 0 0 1 190.50245,466.00103" /></g></clipPath></defs><g
     id="g2575"
     transform="translate(-34.397964,-44.508667)"><path
       style="opacity:1;fill:#ffffff;fill-opacity:1;stroke:#000000;stroke-linejoin:round;stroke-opacity:1"
       d="M 95.837964,244.43248 114.36749,140.082 l 74.11809,-61.44 87.77143,-12.678095 81.92,33.158095 36.08381,73.14286 6.82666,71.19238 z"
       id="path13427" /><path
       style="fill:#f7e053;fill-opacity:1"
       d="M -2.05e-6,256 V -7.5e-7 H 256 512 V 256 512 H 256 -2.05e-6 Z M 388.54545,235.54545 C 390.91926,233.17165 391,232.62738 391,219 391,205.37262 390.9193,204.82835 388.54545,202.45455 387.01402,200.92311 384.94557,200 383.04545,200 H 380 l -0.022,-9.75 c -0.0172,-7.6302 -0.46432,-10.72837 -2.05658,-14.25 -2.25001,-4.97639 0.044,-12.06589 -4.6795,-14.99586 -2.46932,-1.53171 -3.60441,-3.00321 -5.68972,-9.33261 -6.94711,-21.08609 -25.16388,-40.48187 -48.91457,-52.192755 -5.30997,-2.618219 -7.81508,-2.421562 -8.29198,-4.592862 -0.98793,-4.498031 -2.08859,-10.450394 -6.79441,-12.728445 -4.25268,-2.058686 -14.44728,-1.156707 -49.617,-1.135507 -33.64271,0.02028 -39.68089,-2.27044 -43.54829,-0.514611 -4.71422,2.140295 -9.45835,8.11924 -10.37188,12.934997 -0.51674,2.72403 -1.2577,2.285192 -8.94552,6.399602 -22.03872,11.794811 -39.0128,31.160921 -45.72194,51.758081 -1.51118,4.63935 0.76811,10.38887 0.29725,10.39281 -2.47064,0.0207 -9.8349,4.80083 -12.55946,10.25316 C 130.29365,177.83088 131,181.18421 131,190.15972 V 200 h -4.86364 c -3.92163,0 -5.37425,0.51062 -7.5,2.63636 -2.5958,2.59581 -2.63636,2.85039 -2.63636,16.54775 0,13.75902 0.029,13.93825 2.64602,16.36364 L 121.29205,238 H 253.69148 386.09091 Z M 160.21689,200.75 c -0.064,-0.6875 -0.20993,-1.925 -0.3242,-2.75 -0.48347,-3.49057 0.22064,-5.88297 1.85731,-6.31067 1.22677,-0.32059 1.00253,-0.51302 -0.75,-0.64361 -2.3115,-0.17224 -2.3492,-0.25109 -0.5,-1.04572 2.4668,-1.06002 175.83418,-1.06002 180,0 1.65,0.41985 2.3824,0.81661 1.62756,0.88169 -1.10007,0.0948 -1.12765,0.41327 -0.13899,1.60454 0.6784,0.81742 1.04969,3.06032 0.82509,4.98421 -0.22461,1.92389 0.0629,3.69457 0.63898,3.93483 0.57605,0.24026 -40.39014,0.47236 -91.03597,0.51578 -72.98398,0.0626 -92.10749,-0.18032 -92.19978,-1.17105 z m 96.43764,-19.07431 c -169.802705,-123.717759 -84.90135,-61.85888 0,0 z"
       id="path2710"
       clip-path="url(#clipPath3864)" /><path
       style="fill:#4ea966;fill-opacity:1"
       d="M 1.8e-6,256 V -1.5e-6 H 256 512 V 256 512 H 256 1.8e-6 Z M 299.44686,435.36341 c 6.90098,-2.3514 12.96126,-8.55118 14.95076,-15.29491 0.88131,-2.98733 1.59704,-6.58733 1.59051,-8 -0.0212,-4.57794 -2.63757,-12.34402 -7.77185,-23.0685 -6.11992,-12.7833 -16.2183,-35.27038 -16.21713,-36.11232 4.7e-4,-0.33677 2.37874,-0.89179 5.28504,-1.23337 19.64218,-2.30855 41.04281,-16.99322 49.77728,-34.15615 3.41168,-6.70381 3.6988,-6.98474 6.82636,-6.67911 5.31742,0.51964 13.50989,-2.61487 17.44473,-6.67449 4.26014,-4.39524 8.34675,-12.2869 9.23316,-17.83017 1.98537,-12.41582 -9.46853,-26.22012 -21.81572,-26.29243 l -3.75,-0.022 -0.011,-7.25 c -0.006,-3.9875 -0.28993,-8.9375 -0.63084,-11 L 353.73833,238 h 16.31639 C 391.96593,238 391,238.88246 391,218.86464 391,204.94101 390.87225,203.9589 388.81144,202.03896 387.52248,200.83811 385.26172,200 383.31144,200 H 380 l -0.01,-10.25 c -0.008,-8.79346 -0.35421,-10.96051 -2.43371,-15.25 -3.08201,-6.35744 -5.05942,-8.65408 -10.16912,-11.81086 -3.34789,-2.06832 -4.32697,-3.39207 -5.26543,-7.11905 -5.37761,-21.35642 -22.89538,-40.9101 -47.98402,-53.5607 C 309.42085,99.630852 306,97.278422 306,96.413132 c 0,-2.32067 -3.55194,-8.68517 -6.15268,-11.02461 -4.56006,-4.1019 -7.56291,-4.38853 -45.97631,-4.38853 -40.41167,0 -42.05336,0.20871 -47.21574,6.00261 -1.40679,1.57888 -3.15691,4.92535 -3.88916,7.43659 -1.25948,4.31943 -1.75826,4.78423 -9.23973,8.610288 -4.3496,2.22441 -10.88338,6.24985 -14.5195,8.94542 C 172.41333,116.8829 160,129.2158 160,130.87863 c 0,0.48206 -0.71171,1.46715 -1.58158,2.18907 -2.1412,1.77705 -9.00652,16.31206 -10.46355,22.15309 -0.92663,3.71474 -2.16613,5.52456 -5.81623,8.49239 C 132.82162,171.28869 131,175.61679 131,190.17814 V 200 h -5.5 c -9.00007,0 -9.5,0.98332 -9.5,18.68555 C 116,238.99656 114.87566,238 137.79095,238 h 17.44231 l -0.60297,2.25 c -0.33164,1.2375 -0.60913,6.12482 -0.61664,10.86071 l -0.0137,8.61071 -4.94624,0.58581 c -2.72043,0.32219 -6.29946,1.28558 -7.95339,2.14087 -8.25664,4.26967 -13.91281,14.60784 -12.7267,23.26144 0.87109,6.35529 6.89228,17.2873 11.09677,20.14716 4.71637,3.20804 10.20171,5.04683 15.21217,5.09941 3.21673,0.0337 4.32272,0.48534 4.78934,1.95551 0.99872,3.14668 8.75596,14.44977 13.03382,18.99159 8.96752,9.52086 24.97569,17.586 38.60193,19.44817 l 7.6077,1.03968 -13.6077,26.73494 c -13.30756,26.14526 -13.60651,26.87433 -13.55394,33.05447 0.0951,11.17448 5.7473,18.56615 17.17495,22.46041 6.61734,2.25502 7.67099,2.30807 46.34315,2.3333 34.06596,0.0222 40.24016,-0.20189 44.375,-1.61077 z"
       id="path2704"
       clip-path="url(#clipPath3860)" /><path
       style="fill:#583b18"
       d="m 241.44792,323.75856 c -2.94827,-1.16315 -7.69677,-4.42162 -11.25,-7.71987 -5.5846,-5.18385 -6.14839,-6.0795 -6.14839,-9.76747 0,-4.70826 2.27655,-7.37027 6.30306,-7.37027 1.8712,0 3.06602,0.80494 4.08198,2.75 3.51797,6.73516 11.06469,11.25 18.80479,11.25 7.45286,0 12.84241,-2.48819 15.84234,-7.31392 4.52413,-7.27757 6.807,-8.29475 10.81482,-4.81878 4.21484,3.65551 1.95823,10.42523 -5.8004,17.4009 -8.57097,7.70604 -21.62033,9.9401 -32.6482,5.58941 z m -34.07291,-43.31674 c -1.74599,-0.75947 -3.95849,-2.57733 -4.91667,-4.0397 -2.22948,-3.40262 -2.23801,-10.30602 -0.0169,-13.69584 1.89476,-2.89176 7.19403,-5.80533 10.5589,-5.80533 3.43597,0 7.97813,2.83547 10.08969,6.29855 3.61992,5.93686 2.07374,12.36006 -3.95293,16.42143 -3.83991,2.58772 -7.16645,2.81988 -11.76207,0.82089 z m 80.97311,-0.16501 c -10.67902,-5.26577 -8.37576,-20.76995 3.41411,-22.98174 6.85821,-1.28661 14.27982,5.00515 14.27982,12.10588 0,6.05911 -6.32859,12.5353 -12.19286,12.47723 -1.26481,-0.0125 -3.74029,-0.73314 -5.50107,-1.60137 z"
       id="path2698"
       clip-path="url(#clipPath3856)" /><path
       style="fill:#c1e6f6;fill-opacity:1;stroke-width:0.119432"
       d="m 284.42543,181.32538 c -0.64959,-0.39604 -0.85326,-1.02125 -0.85632,-2.62865 l -0.003,-1.37752 -1.12262,-0.33727 c -0.61745,-0.18549 -1.75952,-0.64879 -2.53794,-1.02955 l -1.41531,-0.69228 -1.07803,1.05304 c -0.84633,0.82671 -1.17609,1.07143 -1.53428,1.13863 -0.91528,0.17171 -1.27283,-0.0529 -3.37074,-2.11713 -1.06851,-1.05136 -2.02706,-2.08925 -2.13011,-2.30643 -0.21812,-0.45965 -0.24518,-1.27596 -0.0547,-1.6505 0.073,-0.14348 0.56705,-0.70239 1.09796,-1.24202 l 0.9653,-0.98115 -0.61545,-1.22912 c -0.3385,-0.67602 -0.81546,-1.83341 -1.0599,-2.57197 l -0.44444,-1.34283 -1.50111,-4.8e-4 c -1.78233,-4.8e-4 -2.14446,-0.14632 -2.53034,-1.01868 -0.21854,-0.49405 -0.23393,-0.75847 -0.20088,-3.4519 0.0335,-2.72923 0.0516,-2.93807 0.28203,-3.24638 0.55303,-0.74004 0.77556,-0.8187 2.4362,-0.86109 l 1.53129,-0.0391 0.36775,-1.16009 c 0.20227,-0.63805 0.66645,-1.76871 1.03153,-2.51256 l 0.66376,-1.35246 -0.96188,-1.00192 c -0.52903,-0.55106 -1.01422,-1.13958 -1.07818,-1.30782 -0.15569,-0.4095 -0.14743,-1.20011 0.0159,-1.52238 0.18897,-0.37284 3.92458,-4.12489 4.31069,-4.32967 0.43771,-0.23214 1.40413,-0.21847 1.77084,0.025 0.16242,0.10786 0.70372,0.59568 1.20289,1.08405 l 0.90759,0.88794 1.37035,-0.66382 c 0.75369,-0.3651 1.88626,-0.83082 2.51681,-1.03493 l 1.14645,-0.37112 0.0391,-1.52193 c 0.0377,-1.46521 0.052,-1.53872 0.38332,-1.97269 0.56416,-0.73886 0.79061,-0.78372 3.9563,-0.78372 2.59811,0 2.85209,0.0188 3.29291,0.24368 0.80776,0.41209 0.94505,0.77556 0.94557,2.50337 l 4.7e-4,1.49301 1.22418,0.39716 c 0.6733,0.21845 1.83268,0.69706 2.57639,1.0636 l 1.35221,0.66643 0.97672,-0.9609 c 1.14981,-1.13118 1.3114,-1.22619 2.08553,-1.22619 0.76964,0 1.06238,0.22091 3.2675,2.4658 1.89284,1.92698 2.1288,2.31518 1.9586,3.22243 -0.0674,0.35914 -0.31117,0.68627 -1.14546,1.53701 l -1.05986,1.08075 0.64004,1.27683 c 0.35203,0.70226 0.82022,1.84268 1.04043,2.53427 l 0.40038,1.25745 1.40809,9.5e-4 c 1.60812,0.001 2.18105,0.19313 2.60021,0.87164 0.22304,0.36105 0.23492,0.56959 0.20432,3.5869 l -0.0325,3.20356 -0.50296,0.46898 -0.50296,0.46898 h -1.59796 -1.59795 l -0.14055,0.62702 c -0.17653,0.78748 -1.04741,2.92625 -1.54162,3.78601 l -0.37417,0.65092 1.00041,1.03776 c 1.09521,1.1361 1.34981,1.65546 1.20404,2.45603 -0.0716,0.39348 -0.39515,0.7709 -2.2548,2.63055 -1.85966,1.85965 -2.23708,2.18316 -2.63056,2.25481 -0.79899,0.14548 -1.3233,-0.10994 -2.43798,-1.18765 l -1.01688,-0.98316 -1.38467,0.68777 c -0.76156,0.37828 -1.90951,0.83827 -2.55098,1.0222 l -1.16633,0.33443 -4.7e-4,1.59819 -4.8e-4,1.59819 -0.52173,0.52173 -0.52173,0.52173 -3.15081,-4.7e-4 c -2.94897,-4.8e-4 -3.17612,-0.0159 -3.54591,-0.24134 z m 4.75437,-11.46597 c 4.09869,-0.5283 7.52374,-3.54498 8.61404,-7.587 0.35671,-1.32238 0.35413,-3.64606 -0.006,-5.0097 -1.00377,-3.80547 -4.05388,-6.74484 -7.79728,-7.51419 -3.76202,-0.77317 -7.9044,0.75936 -10.18393,3.76769 -0.66825,0.8819 -1.51257,2.59505 -1.78759,3.62706 -0.27698,1.03939 -0.36566,2.93921 -0.19248,4.12357 0.79255,5.42034 5.91062,9.29403 11.3528,8.59257 z m -51.92448,-8.27742 c -0.58313,-0.21148 -1.19064,-0.745 -1.49048,-1.30894 -0.24027,-0.4519 -0.27318,-0.72244 -0.32815,-2.69794 l -0.0611,-2.19567 -1.08281,-0.32344 c -1.92635,-0.5754 -4.56948,-1.70049 -5.93428,-2.52601 l -0.44831,-0.27117 -1.58203,1.5647 c -1.32204,1.30754 -1.67017,1.58826 -2.11825,1.70808 -0.64532,0.17257 -1.39521,0.0868 -2.00211,-0.22908 -0.67251,-0.35 -6.18767,-5.93637 -6.42328,-6.50622 -0.254,-0.61433 -0.24483,-1.61962 0.02,-2.18675 0.11658,-0.24972 0.84597,-1.10322 1.62086,-1.89667 0.77489,-0.79345 1.40889,-1.47581 1.40889,-1.51636 0,-0.0405 -0.19874,-0.41252 -0.44165,-0.82658 -0.24291,-0.41407 -0.696,-1.32785 -1.00687,-2.03062 -0.55987,-1.26568 -1.53728,-4.09495 -1.53728,-4.4499 0,-0.15921 -0.29249,-0.18423 -2.15362,-0.18423 -2.34587,0 -2.73483,-0.0797 -3.38106,-0.69307 -0.18666,-0.17716 -0.45538,-0.53708 -0.59716,-0.79983 -0.2465,-0.45683 -0.25947,-0.64829 -0.29623,-4.37546 -0.024,-2.43445 0.01,-4.16066 0.0898,-4.59814 0.16948,-0.92589 0.63084,-1.57804 1.38266,-1.95445 0.55914,-0.27994 0.7318,-0.30103 2.76633,-0.33779 l 2.16997,-0.0392 0.14526,-0.61767 c 0.37608,-1.5992 1.57281,-4.50082 2.5296,-6.13333 l 0.42428,-0.72392 -1.43365,-1.41863 c -0.89659,-0.8872 -1.52139,-1.61127 -1.66786,-1.93287 -0.29421,-0.64597 -0.30546,-1.64749 -0.0253,-2.25639 0.22767,-0.49492 5.39206,-5.78922 6.17937,-6.33483 0.3669,-0.25426 0.63848,-0.3333 1.26738,-0.36883 1.1368,-0.0642 1.65488,0.23557 3.33739,1.93135 l 1.36165,1.37239 0.48954,-0.31011 c 1.25793,-0.79686 4.6063,-2.20345 6.19564,-2.60268 l 0.80296,-0.2017 v -1.93443 c 0,-2.342526 0.13522,-2.920931 0.84989,-3.635606 0.26967,-0.269664 0.68589,-0.547571 0.92495,-0.617569 0.28384,-0.08311 1.97485,-0.114479 4.87341,-0.09041 l 4.43875,0.03686 0.51251,0.360336 c 0.31976,0.224818 0.63797,0.60051 0.84612,0.998954 0.32865,0.629095 0.33362,0.670191 0.33362,2.756025 v 2.1174 l 0.98532,0.26972 c 1.54331,0.42246 3.35826,1.14909 5.01478,2.00771 l 1.52139,0.78857 1.48635,-1.45733 c 0.81749,-0.80153 1.67629,-1.53669 1.90845,-1.63369 0.54973,-0.22969 1.63394,-0.22529 2.19523,0.009 0.53385,0.22275 5.99116,5.602 6.41555,6.32378 0.38347,0.6522 0.47155,1.24748 0.29552,1.99726 -0.13557,0.57743 -0.27786,0.76193 -1.6978,2.20151 l -1.54982,1.57126 0.94833,1.89614 c 0.83151,1.66257 2.06359,4.92529 2.06359,5.4647 0,0.13599 0.41812,0.17453 2.23935,0.2064 2.04855,0.0358 2.28201,0.062 2.74002,0.30679 0.56929,0.30427 1.06541,0.89731 1.29957,1.55345 0.20719,0.5806 0.23978,8.12845 0.0385,8.92764 -0.0725,0.28799 -0.31976,0.74316 -0.54943,1.01148 -0.72371,0.84549 -0.89088,0.89223 -3.43117,0.95931 l -2.26126,0.0597 -0.37645,1.25404 c -0.52712,1.75593 -1.04334,3.02752 -1.93079,4.75614 l -0.76545,1.49097 1.42343,1.44472 c 0.78288,0.7946 1.52215,1.63284 1.64281,1.86274 0.31194,0.59435 0.29447,1.70915 -0.0365,2.32893 -0.31572,0.59121 -5.90734,6.16602 -6.48202,6.46252 -0.55897,0.2884 -1.71074,0.28824 -2.26921,-3.6e-4 -0.2299,-0.11879 -1.06294,-0.85399 -1.8512,-1.63379 l -1.43318,-1.4178 -1.8784,0.93517 c -1.58569,0.78944 -3.2705,1.42963 -5.55626,2.11126 -0.11168,0.0333 -0.14929,0.54596 -0.14929,2.0349 0,1.22053 -0.0565,2.18052 -0.14598,2.48196 -0.19196,0.64639 -1.07269,1.52712 -1.71908,1.71908 -0.67547,0.20059 -8.53605,0.18897 -9.09417,-0.0135 z m 6.14878,-17.21469 c 4.85763,-0.31344 9.61917,-3.59966 11.95987,-8.25421 1.18911,-2.36459 1.62565,-4.43622 1.53306,-7.27525 -0.10448,-3.20406 -0.91317,-5.6839 -2.6484,-8.12139 -4.19554,-5.89349 -11.54033,-8.03432 -18.27182,-5.32582 -3.80922,1.5327 -7.07111,5.01401 -8.46013,9.02924 -1.06443,3.07696 -1.07337,6.55898 -0.0249,9.69347 0.78261,2.3396 1.9071,4.16122 3.64085,5.89799 2.04834,2.05191 4.63565,3.49145 7.40899,4.12223 0.81085,0.18442 3.06008,0.39973 3.52214,0.33716 0.13138,-0.0178 0.73452,-0.0643 1.34031,-0.10342 z"
       id="path2738"
       clip-path="url(#clipPath7752)" /><path
       style="fill:#c1e6f6;fill-opacity:1;stroke-width:0.119432"
       d="m 284.70109,181.45257 c -0.38025,-0.15832 -0.8902,-0.76341 -1.01752,-1.20736 -0.0644,-0.22453 -0.11708,-0.97358 -0.11708,-1.66455 v -1.25631 l -1.2566,-0.40459 c -0.69113,-0.22253 -1.82881,-0.69538 -2.52817,-1.05078 l -1.27156,-0.6462 -0.96523,0.95776 c -1.09968,1.09118 -1.6484,1.38152 -2.38371,1.26128 -0.43807,-0.0716 -0.7209,-0.30653 -2.56196,-2.12786 -1.13825,-1.12603 -2.14596,-2.19246 -2.23936,-2.36984 -0.22087,-0.41946 -0.21624,-1.0962 0.0108,-1.57461 0.0993,-0.20933 0.60355,-0.80107 1.1205,-1.31498 l 0.93989,-0.93438 -0.51516,-0.97229 c -0.61746,-1.16532 -0.95322,-1.98248 -1.30735,-3.18178 l -0.2645,-0.89574 -1.59976,-0.0597 c -1.75167,-0.0654 -2.00413,-0.15748 -2.45556,-0.89574 -0.19351,-0.31648 -0.22317,-0.69285 -0.25406,-3.22467 -0.034,-2.78749 -0.0274,-2.88117 0.23886,-3.40382 0.43156,-0.84697 1.00228,-1.07489 2.69154,-1.07489 0.97919,0 1.36366,-0.0412 1.39453,-0.14929 0.38092,-1.33467 0.84603,-2.5479 1.39274,-3.63295 l 0.67209,-1.33387 -0.94672,-0.93534 c -0.52069,-0.51444 -1.02343,-1.08047 -1.11718,-1.25785 -0.22293,-0.42174 -0.21673,-1.09653 0.0145,-1.58389 0.23638,-0.49813 3.96863,-4.19479 4.40123,-4.35927 0.45834,-0.17426 1.10141,-0.15406 1.48087,0.0465 0.17738,0.0937 0.74602,0.59911 1.26365,1.12302 l 0.94114,0.95255 1.26836,-0.64016 c 0.69759,-0.35208 1.83267,-0.82843 2.52239,-1.05854 l 1.25404,-0.41839 0.0607,-1.4678 c 0.0713,-1.72382 0.2387,-2.1271 1.0644,-2.56375 0.50557,-0.26735 0.62641,-0.27753 3.29391,-0.27753 2.65045,0 2.7911,0.0117 3.28288,0.2717 0.80699,0.42675 0.95697,0.82591 0.95697,2.54697 v 1.44893 l 1.16784,0.37021 c 0.64231,0.20362 1.79542,0.68468 2.56245,1.06903 l 1.39461,0.69882 0.92669,-0.93216 c 0.50968,-0.51269 1.09796,-1.01343 1.30729,-1.11277 0.47841,-0.22702 1.15515,-0.23165 1.57461,-0.0108 0.17738,0.0934 1.24515,1.10111 2.37283,2.23935 1.70122,1.71715 2.0642,2.14447 2.13176,2.50962 0.13754,0.74339 -0.12751,1.26093 -1.21862,2.37946 l -1.00285,1.02807 0.65081,1.30086 c 0.35795,0.71548 0.82422,1.85175 1.03617,2.52504 l 0.38535,1.22418 h 1.39842 c 1.22456,0 1.46229,0.0338 1.91221,0.2717 0.91648,0.48465 0.95703,0.65786 0.95652,4.08572 -3.6e-4,2.77055 -0.0177,3.01595 -0.23778,3.37691 -0.44766,0.73423 -0.82833,0.86385 -2.53858,0.86435 -1.15598,3.6e-4 -1.52276,0.0372 -1.52276,0.15305 0,0.39321 -0.67881,2.19931 -1.32821,3.53393 l -0.7187,1.47703 1.07275,1.0939 c 1.7861,1.82131 1.73426,2.07655 -0.98179,4.83414 -2.13231,2.16492 -2.60108,2.48212 -3.45639,2.33882 -0.42018,-0.0704 -0.67509,-0.25563 -1.60429,-1.16574 l -1.10475,-1.08205 -0.50759,0.28548 c -1.10356,0.62067 -1.87983,0.95611 -3.22321,1.39284 l -1.40187,0.45574 -0.002,1.4929 c -0.002,1.6773 -0.13539,2.06338 -0.86581,2.50872 -0.36192,0.22067 -0.5988,0.23683 -3.37505,0.23021 -1.64219,-0.004 -3.09329,-0.0519 -3.22467,-0.10658 z m 4.71758,-11.59462 c 5.41863,-0.85491 9.25435,-5.83489 8.6251,-11.19811 -0.27457,-2.34022 -1.25557,-4.42943 -2.84672,-6.06259 -2.16787,-2.2251 -5.05867,-3.30227 -8.14322,-3.03435 -2.50247,0.21737 -4.54687,1.17743 -6.35269,2.98325 -1.30713,1.30713 -1.93501,2.31832 -2.52077,4.05968 -0.32496,0.96606 -0.39017,1.35768 -0.43895,2.63628 -0.10915,2.86079 0.67347,5.12866 2.52031,7.30337 0.57316,0.67491 2.11682,1.88174 2.94143,2.29961 1.8067,0.91552 4.27897,1.3184 6.21551,1.01286 z m -52.12526,-8.29184 c -0.67236,-0.24366 -1.03124,-0.54271 -1.44009,-1.20002 l -0.3583,-0.57602 -0.0411,-2.249 c -0.0352,-1.92726 -0.0673,-2.249 -0.22489,-2.249 -0.53138,0 -3.77367,-1.22952 -5.44584,-2.06514 l -1.88996,-0.94445 -1.57358,1.54036 c -1.92885,1.88812 -2.37608,2.08359 -3.73194,1.63111 -0.51184,-0.17081 -0.97428,-0.57917 -3.54691,-3.13216 -1.86821,-1.85395 -3.04546,-3.11574 -3.19481,-3.42425 -0.28653,-0.5919 -0.30989,-1.55718 -0.0527,-2.17856 0.10849,-0.26213 0.80024,-1.06308 1.68852,-1.9551 l 1.50473,-1.51106 -0.24064,-0.34014 c -0.77555,-1.09618 -2.38854,-4.9208 -2.77525,-6.58047 l -0.1461,-0.62702 h -2.11645 c -2.07221,0 -2.12999,-0.007 -2.76415,-0.32844 -0.42404,-0.21502 -0.77167,-0.5072 -1.00673,-0.84613 l -0.35903,-0.5177 -0.034,-4.52504 c -0.0321,-4.28332 -0.0216,-4.54914 0.19807,-4.97619 0.27196,-0.5288 0.74424,-0.99205 1.32879,-1.30339 0.35397,-0.18853 0.74937,-0.22863 2.58064,-0.26175 l 2.16263,-0.0391 0.20309,-0.7372 c 0.52387,-1.90155 1.51973,-4.2959 2.49751,-6.00478 l 0.41721,-0.72916 -1.42553,-1.42062 c -0.78404,-0.78134 -1.53164,-1.63913 -1.66133,-1.9062 -0.30348,-0.62496 -0.30641,-1.62177 -0.007,-2.26136 0.30762,-0.65637 6.00073,-6.31493 6.60451,-6.56443 0.64077,-0.26479 1.5567,-0.23392 2.15778,0.0727 0.27622,0.14092 1.13844,0.88109 1.91604,1.64483 l 1.41381,1.38861 1.93089,-0.96408 c 1.9266,-0.96194 2.89814,-1.35149 4.64797,-1.86365 l 0.9256,-0.27091 v -1.89382 c 0,-2.254102 0.10948,-2.774431 0.73272,-3.482466 0.80476,-0.914253 0.85655,-0.921995 5.89782,-0.881519 l 4.41694,0.03546 0.45433,0.313987 c 0.55983,0.386897 1.00338,0.973496 1.15861,1.532275 0.0646,0.232623 0.1178,1.321103 0.11816,2.418843 l 7.2e-4,1.99588 0.50759,0.12859 c 1.83791,0.46559 4.75825,1.65475 6.33917,2.5813 l 0.71288,0.41781 1.56477,-1.54347 c 1.74904,-1.72523 2.03733,-1.88543 3.20269,-1.77976 0.49258,0.0447 0.8439,0.15877 1.15711,0.37582 0.24737,0.17143 1.71677,1.58875 3.26534,3.14959 2.66747,2.68862 2.82592,2.87349 3.01222,3.51433 0.38464,1.32313 0.0944,1.93364 -1.82563,3.83963 l -1.42905,1.41863 0.42427,0.72392 c 0.95923,1.63668 2.15341,4.53395 2.53185,6.14268 l 0.1475,0.62702 h 1.93704 c 2.33246,0 2.96041,0.14398 3.65433,0.83791 0.80594,0.80594 0.85412,1.15483 0.81145,5.87564 -0.0359,3.966 -0.0454,4.1107 -0.30228,4.5911 -0.32203,0.6022 -1.02015,1.19953 -1.58594,1.35696 -0.22991,0.064 -1.34511,0.11661 -2.47822,0.11697 -1.82598,6e-4 -2.06021,0.0228 -2.06021,0.19571 0,0.54075 -1.2213,3.76841 -2.06402,5.45479 l -0.94333,1.88771 1.49737,1.53575 c 1.32925,1.36332 1.51894,1.60993 1.68944,2.19644 0.21346,0.73427 0.15895,1.31233 -0.18739,1.98725 -0.26753,0.52133 -5.88653,6.11884 -6.39901,6.37453 -0.64065,0.31964 -1.2716,0.3609 -1.97165,0.12895 -0.54019,-0.17899 -0.87279,-0.44144 -2.15942,-1.70397 l -1.52088,-1.49239 -0.68861,0.38395 c -1.44832,0.80751 -3.02172,1.49298 -4.71772,2.05532 -0.96793,0.32093 -1.84128,0.58351 -1.94077,0.58351 -0.15467,0 -0.18127,0.30726 -0.18351,2.11993 -0.002,1.87511 -0.0308,2.18198 -0.24628,2.65736 -0.30311,0.66859 -0.63017,1.02489 -1.244,1.35524 -0.46029,0.24771 -0.6325,0.2581 -4.71758,0.28462 -3.42803,0.0223 -4.32999,-0.005 -4.71066,-0.14311 z m 7.27379,-17.33366 c 4.92528,-0.8085 9.43667,-4.49082 11.32511,-9.24385 0.74905,-1.88528 1.05559,-3.5412 1.05356,-5.69124 -0.004,-4.17432 -1.58934,-7.91387 -4.59114,-10.82941 -5.10568,-4.95896 -12.99417,-5.66342 -18.95818,-1.69302 -3.37841,2.2491 -5.80608,5.9493 -6.49492,9.89944 -0.23624,1.3547 -0.2371,3.8002 -0.002,5.16349 0.91476,5.30035 4.48035,9.69984 9.41281,11.61421 2.64959,1.02835 5.2477,1.27397 8.25458,0.78038 z"
       id="path2736"
       clip-path="url(#clipPath7746)" /><path
       style="fill:#c1e6f6;fill-opacity:1;stroke-width:0.119432"
       d="m 284.70109,181.39857 c -0.19706,-0.0876 -0.49265,-0.30463 -0.65687,-0.48231 -0.28336,-0.3066 -0.30055,-0.4063 -0.33716,-1.956 l -0.0386,-1.63294 -1.23183,-0.39466 c -0.6775,-0.21706 -1.8365,-0.69213 -2.57555,-1.05571 l -1.34372,-0.66106 -0.90912,0.88948 c -0.50003,0.48921 -1.04202,0.97772 -1.20443,1.08557 -0.36589,0.24297 -1.332,0.25733 -1.77084,0.0263 -0.17738,-0.0934 -1.21825,-1.07421 -2.31305,-2.17963 -1.64463,-1.6606 -2.00465,-2.08608 -2.07175,-2.44841 -0.15116,-0.81632 0.0217,-1.16212 1.16464,-2.32936 l 1.07301,-1.09585 -0.47768,-0.87478 c -0.57066,-1.04508 -1.27857,-2.79838 -1.47707,-3.65829 l -0.14318,-0.62031 -1.50225,-4.8e-4 c -1.68774,-4.8e-4 -2.07174,-0.13231 -2.51807,-0.86435 -0.22032,-0.36135 -0.23735,-0.60645 -0.23777,-3.42067 -4.8e-4,-2.86992 0.0129,-3.05301 0.24995,-3.43657 0.3988,-0.64527 0.81472,-0.79092 2.47943,-0.86825 l 1.47579,-0.0685 0.40084,-1.22635 c 0.22047,-0.67449 0.69619,-1.80207 1.05716,-2.50574 l 0.65632,-1.27938 -1.05948,-1.08037 c -0.83395,-0.8504 -1.0777,-1.1775 -1.14507,-1.53663 -0.16724,-0.89143 0.0263,-1.18076 2.30004,-3.43937 1.76448,-1.75271 2.1982,-2.12353 2.56251,-2.19087 0.81365,-0.1504 1.16319,0.0229 2.30922,1.14502 l 1.0757,1.05325 1.39325,-0.68963 c 0.76629,-0.3793 1.86769,-0.83677 2.44755,-1.0166 0.57987,-0.17984 1.12148,-0.34861 1.20359,-0.37504 0.10937,-0.0352 0.14929,-0.4655 0.14929,-1.60905 v -1.56099 l 0.44787,-0.47934 c 0.59542,-0.63725 0.93025,-0.70005 3.73226,-0.69996 2.51214,7e-5 3.24771,0.10174 3.68351,0.5091 0.48746,0.45566 0.55496,0.704 0.61605,2.26663 l 0.0597,1.52746 1.25404,0.41794 c 0.68972,0.22987 1.8424,0.71321 2.56151,1.07409 l 1.30748,0.65615 1.02145,-1.00589 c 1.13125,-1.11399 1.3687,-1.27109 1.92116,-1.27109 0.67401,0 1.11394,0.3322 3.12778,2.36185 1.606,1.61859 2.00615,2.08874 2.10987,2.47892 0.21226,0.79848 0.008,1.23745 -1.13304,2.43663 l -1.01599,1.06762 0.65165,1.32459 c 0.3584,0.72853 0.82375,1.86059 1.03409,2.51569 l 0.38245,1.19111 1.15187,0.003 c 1.37379,0.003 2.12689,0.15729 2.50683,0.51195 0.58846,0.54931 0.61567,0.71653 0.61567,3.7826 0,3.19988 -0.0497,3.46817 -0.73293,3.95546 -0.36592,0.26098 -0.54028,0.28992 -1.95883,0.32512 l -1.55717,0.0386 -0.38563,1.21353 c -0.2121,0.66744 -0.68791,1.82118 -1.05736,2.56386 l -0.67172,1.35033 1.01998,1.04233 c 1.15411,1.17941 1.37416,1.65322 1.14805,2.47209 -0.10119,0.36652 -0.51817,0.86618 -1.87863,2.25117 -2.20484,2.2446 -2.4976,2.46553 -3.26724,2.46553 -0.77373,0 -0.93592,-0.0952 -2.08124,-1.22194 l -0.97241,-0.95661 -1.35652,0.66335 c -1.28994,0.63078 -2.17656,0.97262 -3.28808,1.2677 l -0.49837,0.13231 -0.0391,1.60194 c -0.034,1.39508 -0.071,1.64541 -0.28642,1.93865 -0.51786,0.70494 -0.77938,0.7548 -3.93278,0.74986 -2.12167,-0.003 -2.95946,-0.0459 -3.22467,-0.16373 z m 5.16303,-11.60494 c 2.12297,-0.43851 3.65153,-1.26963 5.24125,-2.84979 0.72306,-0.71871 1.2739,-1.40106 1.64057,-2.03222 2.31724,-3.98871 1.68719,-9.04214 -1.53481,-12.31015 -1.84746,-1.87385 -3.98241,-2.88089 -6.57892,-3.10324 -3.94264,-0.33763 -8.05487,2.00332 -9.87615,5.62215 -1.89035,3.75608 -1.25968,8.37522 1.57496,11.53517 1.49116,1.66227 3.93791,2.95032 6.16156,3.24364 0.89444,0.11798 2.53851,0.0665 3.37154,-0.10556 z m -52.548,-8.21971 c -0.6922,-0.25151 -1.23224,-0.72628 -1.53792,-1.35202 -0.25395,-0.51987 -0.28267,-0.76189 -0.32339,-2.72472 l -0.0447,-2.15416 -0.97272,-0.27251 c -1.82524,-0.51135 -4.73241,-1.75422 -6.05259,-2.58761 l -0.43765,-0.27628 -1.36165,1.37183 c -1.62638,1.63852 -2.18097,2.00492 -3.02816,2.0006 -1.19692,-0.006 -1.34695,-0.11304 -4.40654,-3.14104 -3.14706,-3.11458 -3.53833,-3.62787 -3.54013,-4.64414 -0.002,-0.99796 0.24343,-1.39541 1.86653,-3.02534 l 1.50009,-1.50641 -0.29871,-0.47318 c -0.86539,-1.37086 -2.17783,-4.47645 -2.65296,-6.27758 l -0.21266,-0.80617 h -2.07618 c -2.21858,0 -2.55988,-0.0671 -3.32992,-0.65441 -0.20819,-0.15879 -0.49324,-0.53276 -0.63344,-0.83103 -0.24552,-0.52232 -0.25492,-0.70097 -0.25492,-4.847 0,-4.68777 0.0165,-4.81961 0.69307,-5.53187 0.64661,-0.68073 0.85431,-0.7309 3.2931,-0.7955 l 2.25439,-0.0597 0.60191,-1.8512 c 0.40096,-1.23317 0.92634,-2.49469 1.57366,-3.77866 l 0.97175,-1.92745 -1.47097,-1.49571 c -0.80903,-0.82264 -1.55082,-1.68681 -1.64842,-1.9204 -0.24402,-0.58402 -0.22013,-1.58413 0.0517,-2.16412 0.30762,-0.65637 6.00073,-6.31493 6.60451,-6.56443 0.56776,-0.23462 1.41104,-0.2345 1.97831,2.4e-4 0.26103,0.10803 1.05931,0.79591 1.93693,1.66904 l 1.49291,1.48527 1.97063,-0.98522 c 1.76444,-0.88213 3.68864,-1.63428 5.09265,-1.99065 l 0.49452,-0.12553 0.0484,-2.17855 c 0.054,-2.429429 0.16232,-2.824659 0.95778,-3.495384 0.76779,-0.64739 0.82305,-0.65401 5.43557,-0.65118 4.76164,0.0029 4.81207,0.01047 5.62017,0.841133 0.60225,0.61906 0.74343,1.289916 0.74343,3.532591 v 1.94435 l 0.50759,0.12905 c 1.43211,0.36407 3.3384,1.1072 5.10572,1.99036 l 1.97064,0.98475 1.4929,-1.48313 c 0.87554,-0.8698 1.67652,-1.55912 1.93694,-1.6669 0.56727,-0.23479 1.41054,-0.23491 1.9783,-2.4e-4 0.56603,0.2339 6.26904,5.88798 6.62006,6.56325 0.30336,0.58359 0.32298,1.48805 0.0465,2.14435 -0.11959,0.28389 -0.78437,1.06707 -1.67272,1.97063 l -1.47427,1.49951 0.68228,1.21701 c 0.79148,1.41183 1.56232,3.27182 2.0942,5.05318 l 0.37442,1.25404 2.26122,0.0597 c 2.54314,0.0672 2.70687,0.11316 3.43651,0.96558 0.26971,0.31509 0.46877,0.7078 0.54943,1.0839 0.16824,0.78449 0.16698,7.6628 -0.002,8.44862 -0.18077,0.84291 -0.71065,1.52114 -1.46157,1.87076 -0.58185,0.2709 -0.75002,0.28869 -2.73982,0.28978 -1.83015,9.6e-4 -2.11992,0.0263 -2.11992,0.18538 0,0.52783 -1.19723,3.68959 -2.04475,5.39999 l -0.96205,1.94152 0.47933,0.56656 c 0.26363,0.31161 0.89048,0.96964 1.393,1.4623 1.09438,1.0729 1.40746,1.62095 1.40746,2.46381 0,1.06737 -0.27185,1.42855 -3.46543,4.60421 -2.80576,2.79003 -2.99294,2.95176 -3.62958,3.13613 -0.53855,0.15597 -0.78355,0.16923 -1.23931,0.0671 -0.83144,-0.18633 -0.93803,-0.26314 -2.52979,-1.82286 l -1.45455,-1.42527 -1.89775,0.94913 c -1.64888,0.82466 -4.93066,2.06005 -5.47248,2.06005 -0.11677,0 -0.16153,0.52561 -0.19154,2.24918 l -0.0392,2.24917 -0.36146,0.58419 c -0.22362,0.36142 -0.58429,0.72201 -0.94582,0.94563 l -0.58438,0.36146 -4.24947,0.0275 c -3.34403,0.0217 -4.34496,-0.007 -4.69759,-0.1353 z m 7.34102,-17.32671 c 3.23675,-0.56444 6.57777,-2.50125 8.71978,-5.0549 5.82885,-6.94902 4.42502,-17.31589 -3.03143,-22.38628 -3.86786,-2.63014 -8.8568,-3.31665 -13.29937,-1.83007 -2.3568,0.78864 -4.2103,1.93144 -5.91038,3.64415 -2.95009,2.972 -4.41899,6.49851 -4.41899,10.609 0,3.23769 0.74176,5.8028 2.44254,8.44671 0.83803,1.30274 2.84463,3.34754 4.12623,4.2048 1.84025,1.23093 4.18554,2.16993 6.03133,2.41481 0.5255,0.0697 1.11669,0.14963 1.31375,0.1776 0.62927,0.0893 2.97342,-0.0422 4.02654,-0.22582 z"
       id="path2734"
       clip-path="url(#clipPath7740)" /><path
       style="fill:#673819;fill-opacity:1;stroke-width:0.119432"
       d="m 284.93996,181.47965 c -0.42293,-0.10589 -0.91829,-0.53443 -1.0884,-0.94158 -0.10978,-0.26272 -0.16564,-0.87628 -0.16564,-1.81919 v -1.42277 l -1.3469,-0.43538 c -0.74079,-0.23946 -1.91596,-0.72458 -2.6115,-1.07803 l -1.26459,-0.64266 -0.94162,0.95303 c -1.14977,1.16371 -1.45372,1.33827 -2.20465,1.26611 -0.71522,-0.0687 -1.00003,-0.29336 -3.17458,-2.50386 -2.42684,-2.46696 -2.47711,-2.81675 -0.66878,-4.65272 l 1.01813,-1.03368 -0.66184,-1.32424 c -0.364,-0.72834 -0.84149,-1.88401 -1.06108,-2.56815 l -0.39925,-1.24391 -1.55264,-0.0409 c -1.41174,-0.0371 -1.58908,-0.0669 -1.9543,-0.32734 -0.68412,-0.48793 -0.73299,-0.7534 -0.73249,-3.97938 3.6e-4,-2.66387 0.0194,-2.93116 0.23316,-3.28174 0.42566,-0.6981 0.72753,-0.80641 2.43131,-0.87237 l 1.54251,-0.0597 0.42392,-1.30569 c 0.23316,-0.71813 0.71006,-1.86884 1.05978,-2.55712 l 0.63585,-1.25142 -1.00577,-1.04333 c -0.7392,-0.7668 -1.04078,-1.17332 -1.13784,-1.53377 -0.25141,-0.93367 -0.0718,-1.2138 2.25333,-3.51481 1.86771,-1.84832 2.15774,-2.0901 2.59514,-2.16337 0.72803,-0.12195 1.24436,0.15153 2.38139,1.26136 l 0.99343,0.96965 0.57445,-0.32317 c 0.84231,-0.47387 2.84261,-1.30461 3.76926,-1.56542 l 0.80617,-0.2269 4.8e-4,-1.49439 c 4.8e-4,-1.67914 0.13316,-2.06441 0.86434,-2.51022 0.36013,-0.21957 0.60617,-0.23736 3.28932,-0.23777 3.22598,-4.8e-4 3.49146,0.0484 3.97938,0.73249 0.26119,0.3662 0.29015,0.54139 0.32806,1.98415 0.0313,1.18981 0.0798,1.58247 0.19542,1.58247 0.36757,0 2.14749,0.67543 3.50737,1.33094 l 1.47515,0.71108 1.10286,-1.06691 c 1.25449,-1.2136 1.68397,-1.39 2.52685,-1.03782 0.54997,0.22979 4.13084,3.73588 4.40445,4.31247 0.22893,0.48244 0.23406,1.15834 0.012,1.57849 -0.0938,0.17738 -0.60007,0.74697 -1.12514,1.26576 l -0.95467,0.94324 0.63533,1.26625 c 0.50846,1.01341 1.14678,2.69077 1.44767,3.80419 0.0296,0.10938 0.442,0.14929 1.54293,0.14929 1.68007,0 2.00559,0.0983 2.46662,0.74465 0.27004,0.3786 0.27923,0.47448 0.31574,3.29221 0.0357,2.7566 0.0249,2.92856 -0.21619,3.42649 -0.39425,0.81441 -0.92463,1.01634 -2.66952,1.01634 -1.01697,0 -1.41091,0.0408 -1.44197,0.14929 -0.39827,1.39129 -0.83651,2.54219 -1.38429,3.63536 l -0.67157,1.34025 0.93216,0.92669 c 0.51268,0.50968 1.01343,1.09796 1.11276,1.30729 0.22746,0.47934 0.23157,1.156 0.01,1.57461 -0.20478,0.38611 -3.95683,4.12172 -4.32967,4.31069 -0.32821,0.16636 -0.99731,0.17015 -1.42362,0.008 -0.17961,-0.0683 -0.78773,-0.57466 -1.35139,-1.12527 l -1.02485,-1.0011 -0.65688,0.38348 c -0.91263,0.53279 -2.31364,1.12349 -3.42288,1.44317 l -0.9364,0.26987 -0.0597,1.54005 c -0.0692,1.78487 -0.22369,2.17208 -1.02042,2.55777 -0.4459,0.21586 -0.7254,0.23512 -3.22727,0.22247 -1.50651,-0.008 -2.84659,-0.0408 -2.97796,-0.0737 z m 5.84496,-11.86346 c 1.88906,-0.57378 3.84258,-1.86975 5.06815,-3.36222 1.21499,-1.47958 2.08255,-3.56392 2.26111,-5.43239 0.60301,-6.31004 -4.47897,-11.68408 -10.72586,-11.34226 -2.61849,0.14328 -4.79081,1.09716 -6.68128,2.93381 -5.17852,5.03108 -3.58742,13.73738 3.0615,16.75214 1.98868,0.90172 4.91341,1.08968 7.01638,0.45092 z m -53.33858,-8.01592 c -0.24052,-0.0641 -0.65845,-0.30574 -0.92873,-0.53709 -0.84932,-0.72699 -0.89575,-0.89248 -0.96288,-3.43244 l -0.0597,-2.25948 -0.29858,-0.0883 c -2.50938,-0.74169 -5.17038,-1.82319 -6.51845,-2.64927 l -0.7072,-0.43336 -1.49951,1.48251 c -0.91554,0.90516 -1.68297,1.55945 -1.97063,1.68009 -0.65271,0.27374 -1.57936,0.245 -2.21802,-0.0688 -0.68458,-0.33634 -6.12377,-5.83315 -6.44295,-6.51118 -0.27352,-0.58106 -0.29392,-1.46733 -0.0473,-2.05744 0.10408,-0.24912 0.82815,-1.08969 1.68192,-1.95256 l 1.49914,-1.51512 -0.55025,-0.94701 c -0.86187,-1.48333 -1.98354,-4.26993 -2.4509,-6.08883 l -0.12803,-0.49831 -2.23725,-0.0391 c -2.42313,-0.0424 -2.60534,-0.0851 -3.30186,-0.7745 -0.76757,-0.75969 -0.78107,-0.85562 -0.78397,-5.56852 -0.003,-4.62264 0.002,-4.66616 0.66108,-5.44733 0.62715,-0.74383 1.03478,-0.84331 3.46783,-0.84626 l 2.16091,-0.003 0.26794,-0.98532 c 0.49545,-1.82193 1.73113,-4.72252 2.59445,-6.09011 l 0.29201,-0.46258 -0.59139,-0.67984 c -0.32527,-0.37391 -0.98118,-1.05606 -1.45758,-1.51587 -0.4764,-0.45981 -0.96415,-1.051 -1.08388,-1.31375 -0.28843,-0.63295 -0.28323,-1.53196 0.0124,-2.14194 0.14725,-0.30384 1.36527,-1.61013 3.25452,-3.49035 3.20352,-3.18822 3.30507,-3.2631 4.4273,-3.26475 0.74319,-0.001 1.38103,0.4235 2.90579,1.9343 l 1.4475,1.43426 1.12029,-0.60134 c 1.95294,-1.04828 4.20605,-1.94672 6.0398,-2.4084 l 0.50051,-0.12602 0.0369,-2.30556 c 0.0367,-2.289152 0.0393,-2.309095 0.36639,-2.802936 0.1812,-0.273559 0.55338,-0.645636 0.82706,-0.826838 l 0.49761,-0.329458 4.27492,-0.03547 c 2.65458,-0.02203 4.4461,0.01081 4.72653,0.08663 0.59574,0.161061 1.29142,0.748312 1.61553,1.363724 0.23253,0.441524 0.26824,0.737248 0.32497,2.691038 l 0.0637,2.195 1.19432,0.33621 c 1.5356,0.43228 3.20305,1.11695 4.93259,2.02537 l 1.37634,0.72289 1.56311,-1.54517 c 1.61006,-1.59159 1.9538,-1.80756 2.87686,-1.80756 1.01283,0 1.17602,0.12265 4.3426,3.26408 1.94755,1.93207 3.10848,3.17533 3.25191,3.48251 0.29882,0.64 0.29552,1.63736 -0.007,2.26136 -0.12969,0.26707 -0.87508,1.12265 -1.65642,1.9013 l -1.42062,1.41573 0.86849,1.68951 c 0.92232,1.79423 1.57299,3.42239 1.98932,4.97792 l 0.25465,0.95144 h 2.13437 c 2.32506,0 2.71663,0.0807 3.36182,0.69307 0.18665,0.17715 0.44378,0.52511 0.5714,0.77324 0.21961,0.427 0.23021,0.69275 0.19807,4.96536 l -0.034,4.51421 -0.32576,0.49207 c -0.17917,0.27063 -0.58226,0.64283 -0.89575,0.8271 -0.5613,0.32995 -0.60394,0.33564 -2.80186,0.37411 l -2.23189,0.0391 -0.0828,0.37895 c -0.31916,1.46107 -1.59324,4.62588 -2.50474,6.22178 l -0.54037,0.9461 1.5407,1.56197 c 1.70091,1.72439 1.87112,2.02506 1.78901,3.16017 -0.0371,0.51244 -0.13933,0.80711 -0.42047,1.21152 -0.58004,0.8344 -5.76291,5.89622 -6.28166,6.13496 -0.59899,0.27566 -1.61315,0.2706 -2.16164,-0.0108 -0.23557,-0.12085 -1.1139,-0.86803 -1.95184,-1.66039 l -1.52352,-1.44066 -0.35829,0.22981 c -1.27682,0.81893 -5.20261,2.43847 -6.70679,2.76681 l -0.37689,0.0823 -0.046,2.17263 c -0.0514,2.42553 -0.12773,2.73387 -0.85804,3.46417 -0.7447,0.7447 -1.13723,0.8002 -5.55966,0.78617 -2.13935,-0.007 -4.08652,-0.0648 -4.32705,-0.1288 z m 6.49333,-17.23197 c 5.74087,-0.7642 10.50121,-4.7626 12.32274,-10.35037 0.56315,-1.72753 0.72199,-2.76925 0.71701,-4.70236 -0.006,-2.51258 -0.41396,-4.33004 -1.47277,-6.56878 -0.64158,-1.35657 -1.99009,-3.21879 -3.12745,-4.31884 -1.48203,-1.43343 -3.7163,-2.8026 -5.64676,-3.46038 -2.92546,-0.99681 -6.64419,-1.0177 -9.59359,-0.0539 -4.87058,1.59163 -8.72616,5.66432 -9.9945,10.55729 -0.57309,2.21085 -0.64051,4.09689 -0.23449,6.56011 0.84377,5.11903 4.59605,9.63276 9.60033,11.54852 2.2401,0.85757 4.83926,1.13348 7.42948,0.78869 z"
       id="path2732"
       clip-path="url(#clipPath7734)" /><path
       style="fill:#c1e6f6;fill-opacity:1;stroke-width:0.119432"
       d="m 237.04764,161.42386 c -0.48348,-0.25443 -0.99409,-0.74045 -1.23485,-1.17535 -0.15794,-0.28531 -0.2105,-0.817 -0.25806,-2.61023 l -0.0597,-2.25193 -1.73919,-0.57484 c -1.89646,-0.62681 -3.6443,-1.37631 -4.94902,-2.12221 l -0.83602,-0.47796 -1.51365,1.48294 c -0.83251,0.81562 -1.70413,1.56253 -1.93694,1.6598 -0.58171,0.24305 -1.583,0.21924 -2.16272,-0.0514 -0.30718,-0.14343 -1.55044,-1.30436 -3.48251,-3.25191 -3.17237,-3.19777 -3.26717,-3.3257 -3.26213,-4.40232 0.004,-0.77631 0.42835,-1.42497 1.92264,-2.93647 l 1.43812,-1.45466 -0.47196,-0.83287 c -0.96023,-1.69452 -2.05104,-4.37248 -2.53019,-6.21163 l -0.13224,-0.50759 h -1.91314 c -2.23263,0 -2.78033,-0.10957 -3.46133,-0.69249 -0.93349,-0.79903 -0.94063,-0.84112 -0.94361,-5.56384 -0.002,-2.95739 0.04,-4.30891 0.14426,-4.65786 0.18864,-0.63134 0.9993,-1.44904 1.60265,-1.61657 0.25298,-0.0703 1.38499,-0.12802 2.51557,-0.12839 l 2.0556,-7.1e-4 0.12774,-0.50759 c 0.45284,-1.79939 1.58172,-4.55873 2.64029,-6.45372 l 0.38607,-0.69111 -1.56001,-1.5781 c -1.63027,-1.64917 -1.82151,-1.95946 -1.82308,-2.95798 -0.001,-0.89064 0.45797,-1.47907 3.54936,-4.54652 2.69291,-2.67206 3.00944,-2.94844 3.5195,-3.07314 1.34877,-0.32975 1.95835,-0.0374 3.79686,1.82083 0.75434,0.76244 1.40789,1.38625 1.45235,1.38625 0.0445,0 0.45518,-0.21213 0.91271,-0.4714 1.62557,-0.92115 4.47976,-2.07806 6.19908,-2.51271 l 0.50051,-0.12653 0.0369,-2.30556 c 0.0366,-2.282575 0.0402,-2.310459 0.3627,-2.797354 0.17917,-0.270489 0.58225,-0.642566 0.89574,-0.826838 l 0.56997,-0.33499 4.20601,-0.03553 c 2.60937,-0.02205 4.37752,0.01084 4.65785,0.08663 0.61193,0.165435 1.33105,0.78311 1.59927,1.373645 0.18849,0.415016 0.2212,0.80397 0.22344,2.657347 l 0.003,2.17116 0.68674,0.19175 c 1.72428,0.48145 3.45001,1.15203 5.15885,2.00464 l 1.85475,0.92539 1.4347,-1.42099 c 0.78909,-0.78155 1.62282,-1.51889 1.85272,-1.63853 0.53583,-0.27884 1.82076,-0.2875 2.32893,-0.0157 0.59581,0.31866 6.23412,6.06364 6.4433,6.56519 0.27737,0.66505 0.23548,1.4985 -0.11006,2.18989 -0.18395,0.36807 -0.80895,1.10248 -1.65806,1.94833 l -1.36283,1.35758 0.75546,1.44908 c 0.85283,1.63586 1.69376,3.71927 2.09135,5.18133 l 0.26794,0.98532 2.1609,0.003 c 1.83147,0.002 2.23389,0.0358 2.63965,0.22012 0.59739,0.27139 1.20106,0.94657 1.37412,1.53691 0.0887,0.30255 0.11979,1.86085 0.095,4.75901 l -0.0369,4.30916 -0.35937,0.58102 c -0.2549,0.41212 -0.53154,0.66971 -0.95166,0.88614 -0.56079,0.28889 -0.70835,0.30721 -2.77368,0.34443 l -2.18137,0.0393 -0.12589,0.49813 c -0.44192,1.74861 -1.52153,4.40906 -2.47355,6.09546 l -0.53036,0.93948 1.4995,1.51549 c 1.59842,1.61545 1.86665,2.04197 1.86243,2.96149 -0.005,1.05017 -0.29329,1.442 -3.25413,4.42013 -3.00809,3.02567 -3.47934,3.37665 -4.53363,3.37665 -0.94108,0 -1.36184,-0.26421 -2.96825,-1.86388 l -1.50263,-1.49632 -0.74661,0.43758 c -1.32316,0.77548 -3.01012,1.50349 -4.96668,2.14338 l -1.91092,0.62496 -0.0597,2.25678 c -0.0646,2.4429 -0.11668,2.65798 -0.79551,3.28817 -0.76153,0.70697 -0.71272,0.7008 -5.49861,0.69559 -3.76692,-0.004 -4.44627,-0.0317 -4.75336,-0.19334 z m 7.80056,-17.17744 c 5.85436,-1.13834 10.56329,-5.79361 11.84111,-11.70618 1.45809,-6.74673 -1.83244,-13.58957 -8.0684,-16.77867 -3.38981,-1.73356 -7.65998,-2.06483 -11.41454,-0.88549 -6.40927,2.0132 -10.91223,8.39527 -10.55954,14.96608 0.21797,4.06063 1.70394,7.48174 4.43673,10.21453 1.07883,1.07883 2.69641,2.27923 3.86403,2.86749 1.45189,0.73147 3.42865,1.31127 5.265,1.54427 0.81889,0.10391 3.65897,-0.0321 4.63561,-0.22203 z"
       id="path2730"
       clip-path="url(#clipPath7728)" /><path
       style="fill:#c1e6f6;fill-opacity:1;stroke-width:0.119432"
       d="m 237.04764,161.39556 c -0.26275,-0.12165 -0.62268,-0.37576 -0.79983,-0.56468 -0.61306,-0.65378 -0.69308,-1.04205 -0.69308,-3.36291 v -2.13134 l -0.98531,-0.27987 c -1.58157,-0.44923 -3.61936,-1.27141 -5.21822,-2.10538 l -1.48596,-0.77508 -1.49984,1.49354 c -0.88394,0.88022 -1.68219,1.56901 -1.94388,1.67732 -0.59575,0.24657 -1.48036,0.22783 -2.06404,-0.0437 -0.30986,-0.14415 -1.52991,-1.28688 -3.47196,-3.2519 -2.47392,-2.50319 -3.0187,-3.11507 -3.13509,-3.52123 -0.37348,-1.30327 -0.0804,-1.93138 1.778,-3.81122 l 1.43105,-1.44752 -0.82746,-1.60355 c -0.86208,-1.67066 -1.47956,-3.20912 -1.96874,-4.90523 l -0.28781,-0.99787 -2.19316,-0.0607 c -2.39597,-0.0663 -2.63169,-0.12632 -3.41467,-0.86925 -0.72413,-0.68709 -0.76471,-1.00763 -0.72501,-5.72642 l 0.0356,-4.23124 0.35888,-0.58752 c 0.26941,-0.44107 0.52037,-0.6694 1.00673,-0.91597 0.63471,-0.32177 0.69104,-0.32843 2.77621,-0.32843 1.1706,0 2.12837,-0.0237 2.12837,-0.0528 0,-0.029 0.18439,-0.66053 0.40975,-1.40333 0.52076,-1.71644 1.31951,-3.62309 2.09156,-4.99266 0.33216,-0.58922 0.60393,-1.11011 0.60393,-1.15751 0,-0.0474 -0.69309,-0.78732 -1.54019,-1.64426 -1.60835,-1.62704 -1.80523,-1.94757 -1.80063,-2.93155 0.004,-0.89176 0.3832,-1.38739 3.3178,-4.33856 1.55632,-1.56511 3.02342,-2.94615 3.26022,-3.06897 0.2368,-0.12282 0.69939,-0.25897 1.02799,-0.30256 0.97055,-0.12875 1.5279,0.19695 3.22052,1.88205 l 1.45439,1.44791 1.65085,-0.84161 c 1.91701,-0.9773 3.48408,-1.61164 4.92638,-1.99417 l 1.02403,-0.27159 0.0597,-2.25772 c 0.0583,-2.202447 0.0678,-2.27153 0.39133,-2.821848 0.21504,-0.365817 0.52993,-0.680702 0.89575,-0.895741 l 0.56412,-0.331613 h 4.419 4.41899 l 0.53214,0.29858 c 0.29268,0.164219 0.69576,0.531411 0.89574,0.815981 l 0.3636,0.517401 0.0597,2.33106 0.0597,2.33106 1.37347,0.39743 c 1.75982,0.50922 3.98072,1.45426 5.64555,2.40229 l 0.56968,0.32441 1.46067,-1.43919 c 0.80337,-0.79155 1.64878,-1.53603 1.87868,-1.6544 0.5907,-0.30413 1.7114,-0.2874 2.32893,0.0348 0.26752,0.13957 1.77289,1.55425 3.4212,3.21511 3.13232,3.15615 3.20866,3.26097 3.204,4.39906 -0.003,0.81977 -0.39239,1.43045 -1.87579,2.94449 -0.77292,0.78888 -1.40531,1.47024 -1.40531,1.51413 0,0.0439 0.25801,0.54708 0.57336,1.1182 0.94377,1.70924 1.86465,4.02765 2.35086,5.91853 l 0.13051,0.50759 h 2.12376 c 2.08019,0 2.13705,0.007 2.77146,0.32843 0.42403,0.21503 0.77168,0.50721 1.00673,0.84613 l 0.35904,0.51768 0.0344,4.37904 c 0.0393,4.99761 0.0309,5.05362 -0.88048,5.85582 -0.70886,0.62396 -1.22803,0.73271 -3.49792,0.73271 h -1.90926 l -0.19123,0.68674 c -0.43972,1.57916 -1.12107,3.30574 -1.99079,5.04476 l -0.9252,1.84994 1.53269,1.55901 c 1.61688,1.64464 1.7974,1.94483 1.79315,2.98192 -0.004,0.95426 -0.34194,1.40059 -3.31675,4.37933 -3.03239,3.0364 -3.40996,3.31653 -4.47675,3.32143 -0.93206,0.004 -1.35611,-0.26227 -2.96324,-1.86266 l -1.50404,-1.49773 -0.99069,0.54799 c -1.81923,1.00629 -4.74816,2.17316 -6.30227,2.5108 l -0.38815,0.0843 -0.003,2.17015 c -0.003,2.39336 -0.0954,2.79778 -0.78848,3.44771 -0.72211,0.67713 -0.85109,0.69331 -5.50511,0.69045 -3.90473,-0.002 -4.31477,-0.0217 -4.75127,-0.2238 z m 7.18004,-17.03637 c 3.13255,-0.46514 5.98028,-1.92839 8.35334,-4.29221 2.19332,-2.18477 3.55216,-4.7442 4.24969,-8.00447 0.0883,-0.41253 0.15518,-1.55277 0.15771,-2.68723 0.004,-1.64341 -0.0422,-2.17886 -0.27604,-3.22467 -0.68605,-3.06785 -2.12577,-5.5986 -4.45426,-7.82972 -4.99282,-4.78406 -12.58412,-5.53028 -18.58081,-1.82647 -1.28437,0.79328 -3.57406,3.01149 -4.4207,4.28269 -1.85535,2.78576 -2.75768,5.89085 -2.62006,9.01619 0.17938,4.07379 1.69159,7.55 4.49408,10.33088 3.48418,3.4573 8.15753,4.96846 13.09705,4.23501 z"
       id="path2728"
       clip-path="url(#clipPath7722)" /><path
       style="fill:#d47c34;fill-opacity:1;stroke-width:0.119432"
       d="m 237.24779,161.48885 c -0.55008,-0.16232 -1.36763,-1.01493 -1.54617,-1.61249 -0.0913,-0.30564 -0.14689,-1.26389 -0.14689,-2.53333 v -2.04175 l -0.50758,-0.13053 c -1.79565,-0.46179 -4.60203,-1.58465 -6.11398,-2.44627 -0.51889,-0.29571 -0.97541,-0.53764 -1.01449,-0.53764 -0.0391,0 -0.71515,0.65065 -1.50238,1.4459 -1.53146,1.54707 -2.06403,1.89208 -2.92422,1.89441 -1.04742,0.003 -1.51472,-0.34769 -4.55476,-3.4166 -1.55264,-1.56739 -2.9025,-3.01104 -2.9997,-3.2081 -0.30406,-0.61651 -0.35508,-1.21974 -0.15963,-1.88746 0.15892,-0.54292 0.36908,-0.8073 1.67867,-2.11173 0.82335,-0.82011 1.497,-1.55829 1.497,-1.64039 0,-0.0821 -0.16193,-0.41246 -0.35985,-0.73412 -0.79594,-1.29356 -1.91755,-4.01133 -2.50801,-6.07711 l -0.2475,-0.86588 h -2.14855 c -2.73069,0 -3.20651,-0.16955 -3.85442,-1.37347 -0.24666,-0.45832 -0.25855,-0.64427 -0.29283,-4.57724 -0.0418,-4.79929 -0.005,-5.05245 0.85777,-5.84744 0.28953,-0.26688 0.73359,-0.54276 0.98679,-0.61307 0.25321,-0.0703 1.36229,-0.12813 2.46462,-0.1285 1.50192,-4.8e-4 2.01429,-0.0381 2.04434,-0.14995 0.46452,-1.72926 1.34431,-4.03947 2.14159,-5.62348 l 0.9519,-1.89123 -1.43913,-1.45288 c -0.79152,-0.79908 -1.51795,-1.61411 -1.6143,-1.81117 -0.30254,-0.61883 -0.35312,-1.22106 -0.15851,-1.88746 0.16785,-0.57477 0.41316,-0.85154 3.32085,-3.7467 2.7685,-2.75655 3.19609,-3.13692 3.61735,-3.21785 1.36145,-0.26155 1.93913,0.0194 3.79287,1.84493 l 1.40422,1.38282 1.283,-0.66999 c 2.04216,-1.06644 3.53484,-1.65127 6.20958,-2.4329 0.11174,-0.0327 0.14946,-0.54783 0.14996,-2.04786 3.6e-4,-1.10233 0.0582,-2.211409 0.1285,-2.464616 0.19387,-0.698191 0.97416,-1.47398 1.69907,-1.689254 0.87686,-0.2604 8.00348,-0.261462 8.87946,-0.0013 0.6397,0.18997 1.39154,0.817151 1.62847,1.358452 0.0793,0.181115 0.16456,1.27518 0.20085,2.576618 l 0.0631,2.26184 1.16937,0.33596 c 1.70274,0.4892 3.17282,1.08223 4.84492,1.95444 0.81173,0.42342 1.53266,0.76986 1.60208,0.76986 0.0694,0 0.80263,-0.6685 1.62937,-1.48553 0.82674,-0.81705 1.6644,-1.54678 1.86146,-1.62163 0.58649,-0.22276 1.53368,-0.17691 2.10967,0.10213 0.34155,0.16546 1.48117,1.21776 3.34752,3.09099 2.93559,2.94644 3.31361,3.44013 3.31779,4.33304 0.005,0.987 -0.19049,1.30271 -1.83007,2.96128 l -1.56963,1.58781 0.26192,0.45511 c 1.10326,1.91695 2.00811,4.03729 2.55346,5.98356 l 0.31793,1.13461 2.26456,0.0597 2.26457,0.0597 0.58208,0.36014 c 0.42347,0.26201 0.67301,0.53421 0.91579,0.99896 l 0.33372,0.63881 v 4.12277 c 0,4.46596 -0.0319,4.74073 -0.63546,5.47295 -0.64493,0.78242 -1.03792,0.88143 -3.5102,0.88442 l -2.17504,0.003 -0.12843,0.50758 c -0.35786,1.41427 -1.23224,3.68096 -2.05775,5.33438 l -0.92294,1.84854 1.47014,1.49934 c 1.67334,1.70658 1.95309,2.20185 1.83011,3.24016 -0.0394,0.33251 -0.17788,0.77554 -0.30778,0.98449 -0.1299,0.20896 -1.56966,1.70042 -3.19946,3.31437 -2.44772,2.4239 -3.04881,2.95896 -3.45487,3.07538 -1.30891,0.37526 -1.94647,0.0785 -3.80798,-1.77272 l -1.43318,-1.42524 -1.86082,0.93208 c -1.63191,0.81742 -3.74571,1.62765 -5.3279,2.04221 l -0.50052,0.13114 -0.0369,2.30556 c -0.0367,2.28915 -0.0393,2.30909 -0.36639,2.80293 -0.1812,0.27356 -0.55338,0.64564 -0.82707,0.82684 l -0.49761,0.32946 -4.36823,0.0219 c -2.57587,0.0129 -4.53113,-0.0262 -4.76524,-0.0953 z m 8.24822,-17.34425 c 2.81193,-0.73385 4.97817,-1.98044 7.08664,-4.07809 2.15105,-2.14002 3.37113,-4.31619 4.11919,-7.34712 0.37688,-1.52706 0.41165,-4.87274 0.067,-6.44934 -0.47346,-2.16596 -1.24218,-3.92167 -2.48103,-5.66652 -2.31118,-3.25517 -5.6363,-5.40344 -9.65625,-6.23862 -1.36161,-0.2829 -4.19221,-0.2808 -5.64614,0.004 -7.39848,1.45013 -12.66541,8.04815 -12.35387,15.47602 0.12693,3.02644 0.90394,5.46577 2.54107,7.97734 0.83763,1.28505 2.75266,3.22205 4.04204,4.08842 1.81142,1.21713 4.25927,2.20374 6.2216,2.50761 0.39413,0.061 1.65712,0.0927 2.80666,0.0703 1.76706,-0.0344 2.2698,-0.0876 3.25307,-0.34418 z"
       id="path2726"
       clip-path="url(#clipPath7716)" /></g></svg>
