<?xml version="1.0" encoding="UTF-8" standalone="no"?>
<!-- Created with Inkscape (http://www.inkscape.org/) -->

<svg
   version="1.1"
   id="svg2"
   width="173.07391"
   height="124.17866"
   viewBox="0 0 173.07391 124.17866"
   xml:space="preserve"
   xmlns="http://www.w3.org/2000/svg"
   xmlns:svg="http://www.w3.org/2000/svg"><defs
     id="defs6"><rect
       x="-156.71912"
       y="-147.00009"
       width="639.02521"
       height="308.5787"
       id="rect2129" /><rect
       x="139.71083"
       y="103.26453"
       width="230.82658"
       height="65.603348"
       id="rect2040" /><clipPath
       clipPathUnits="userSpaceOnUse"
       id="clipPath393"><rect
         style="fill:#e3b9d6;stroke:#000000;stroke-linejoin:round"
         id="rect395"
         width="146.03807"
         height="152.05151"
         x="-864.2019"
         y="-631.39996" /></clipPath><clipPath
       clipPathUnits="userSpaceOnUse"
       id="clipPath393-5"><rect
         style="fill:#e3b9d6;stroke:#000000;stroke-linejoin:round"
         id="rect395-6"
         width="146.03807"
         height="152.05151"
         x="-864.2019"
         y="-631.39996" /></clipPath><clipPath
       clipPathUnits="userSpaceOnUse"
       id="clipPath393-5-4"><rect
         style="fill:#e3b9d6;stroke:#000000;stroke-linejoin:round"
         id="rect395-6-6"
         width="146.03807"
         height="152.05151"
         x="-864.2019"
         y="-631.39996" /></clipPath><clipPath
       clipPathUnits="userSpaceOnUse"
       id="clipPath393-5-4-2"><rect
         style="fill:#e3b9d6;stroke:#000000;stroke-linejoin:round"
         id="rect395-6-6-7"
         width="146.03807"
         height="152.05151"
         x="-864.2019"
         y="-631.39996" /></clipPath><clipPath
       clipPathUnits="userSpaceOnUse"
       id="clipPath393-5-4-2-1"><rect
         style="fill:#e3b9d6;stroke:#000000;stroke-linejoin:round"
         id="rect395-6-6-7-2"
         width="146.03807"
         height="152.05151"
         x="-864.2019"
         y="-631.39996" /></clipPath><clipPath
       clipPathUnits="userSpaceOnUse"
       id="clipPath393-5-40"><rect
         style="fill:#e3b9d6;stroke:#000000;stroke-linejoin:round"
         id="rect395-6-4"
         width="146.03807"
         height="152.05151"
         x="-864.2019"
         y="-631.39996" /></clipPath><clipPath
       clipPathUnits="userSpaceOnUse"
       id="clipPath393-5-4-2-1-7"><rect
         style="fill:#e3b9d6;stroke:#000000;stroke-linejoin:round"
         id="rect395-6-6-7-2-7"
         width="146.03807"
         height="152.05151"
         x="-864.2019"
         y="-631.39996" /></clipPath><clipPath
       clipPathUnits="userSpaceOnUse"
       id="clipPath606"><rect
         style="fill:#e3b9d6;stroke:#000000;stroke-linejoin:round"
         id="rect608"
         width="213.04381"
         height="225.07048"
         x="-646.00378"
         y="-566.97144" /></clipPath></defs><g
     id="layer5"
     transform="translate(-299.53989,-140.45635)"><path
       style="fill:#4ea966;fill-opacity:1"
       d="m -574.60657,-400.5249 c -13.57028,-2.56693 -32.21781,-10.94771 -42.08131,-18.91264 l -2.84748,-2.29939 5.47938,-9.08906 c 6.68792,-11.09376 9.99858,-20.01434 13.18649,-35.53094 3.11383,-15.156 6.91749,-23.33509 14.1239,-30.37086 6.21107,-6.06399 16.5428,-11.54252 25.12916,-13.32504 11.17843,-2.32063 25.40369,2.64111 36.1825,12.62039 3.22346,2.98436 6.1589,5.42611 6.52319,5.42611 0.9504,0 5.54894,-10.15949 5.56057,-12.28491 0.0157,-2.87282 5.18882,-17.71509 6.17438,-17.71509 1.73925,0 8.37536,3.12015 12.08539,5.68227 2.37259,1.6385 3.73794,3.36622 3.71716,4.70373 -5.87194,8.30377 -12.56099,14.3629 -18.11448,21.80001 -1.70158,2.14842 -2.92704,4.06317 -2.72323,4.25501 0.2038,0.19183 2.05787,1.04805 4.12016,1.90269 9.11063,4.98238 14.46463,11.93207 17.38112,19.89852 2.47329,7.23802 2.49295,21.46886 0.0394,28.50623 -2.38076,6.82858 -9.87194,15.34407 -12.28188,16.84703 -4.52492,3.40869 -7.62013,5.83088 -11.39034,8.17373 -1.81498,1.13347 -1.81367,1.03945 0.0427,-3.04985 2.32939,-5.13125 2.50557,-11.49454 0.40143,-14.49863 -2.06195,-2.93513 -2.77432,-3.53827 -6.01286,-5.70423 -4.98684,-3.38416 -11.97932,-3.73136 -18.01543,-0.89453 -7.19683,3.38235 -10.37611,16.91065 -5.41378,23.03646 1.375,1.69738 3.70554,3.9133 5.17898,4.92426 3.37485,3.01705 3.33075,2.05687 4.82102,3.17225 0,3.16345 -28.87162,5.07102 -41.26617,2.72648 z"
       id="path524"
       clip-path="url(#clipPath606)"
       transform="matrix(0.69939464,0,0,0.69939464,814.50751,544.02994)" /></g><g
     id="layer1"
     transform="translate(-299.53989,-140.45635)"><path
       style="fill:#d47c34;fill-opacity:1;stroke:#d47c34;stroke-linejoin:round;stroke-opacity:1"
       d="m 314.55918,175.43339 c -29.49028,-17.82408 33.18416,-56.62164 32.42905,-17.82523 13.02889,-3.4362 26.34413,-3.43619 39.94571,0 2.61601,-39.89474 65.06137,2.55818 32.64381,18.04 68.97107,113.78332 -180.93898,105.59518 -105.01857,-0.21477 z"
       id="path6440" /></g><g
     id="layer2"
     transform="translate(-299.53989,-140.45635)"><path
       style="fill:#ffffff;fill-opacity:1"
       d="m -807.76298,-534.6457 c 9.75229,-6.3235 12.28646,-24.2735 4.47658,-31.70844 -6.33538,-6.03124 -15.56635,-2.4587 -20.27306,7.84601 -3.14061,8.77415 -2.20762,25.90344 9.17891,26.46832 1.40241,0.0174 4.38032,-1.15523 6.61757,-2.60589 z"
       id="path315-8-6-6-3-3"
       clip-path="url(#clipPath393-5-4-2-1-7)"
       transform="matrix(1.1268355,0,0,-1.1268355,1314.9305,-422.73907)" /><path
       style="fill:#ffffff;fill-opacity:1"
       d="m -807.76298,-534.6457 c 9.75229,-6.3235 12.28646,-24.2735 4.47658,-31.70844 -6.33538,-6.03124 -15.56635,-2.4587 -20.27306,7.84601 -3.14061,8.77415 -2.20762,25.90344 9.17891,26.46832 1.40241,0.0174 4.38032,-1.15523 6.61757,-2.60589 z"
       id="path315-8-6-6-3"
       clip-path="url(#clipPath393-5-4-2-1)"
       transform="matrix(1.1210703,0,0,1.1210703,1246.393,813.89162)" /><text
       xml:space="preserve"
       id="text2038"
       style="font-style:normal;font-weight:normal;font-size:40px;line-height:1.25;font-family:sans-serif;white-space:pre;shape-inside:url(#rect2040);display:inline;fill:#000000;fill-opacity:1;stroke:none" /></g><g
     id="layer3"
     transform="translate(-299.53989,-140.45635)"><path
       style="fill:#673819;fill-opacity:1"
       d="m -784.77612,-521.71589 c -4.56325,-1.17623 -7.17723,-6.46551 -4.88895,-9.89254 2.68706,-4.02424 11.15928,-4.56602 14.78015,-0.94515 3.97466,3.97466 2.8083,8.52927 -2.67357,10.44027 -3.2924,1.14773 -4.1282,1.19375 -7.21763,0.39742 z m -44.92945,-5.27957 c -5.6782,-4.49611 -8.36412,-17.75336 -5.37447,-26.52749 7.00029,-20.54471 38.34338,-33.73281 66.6848,-28.05867 22.93679,2.57382 49.53352,25.98538 38.10321,50.30229 -1.17968,2.31238 -3.11798,4.72511 -4.30732,5.36163 -4.19068,2.24278 -12.58856,0.41508 -25.47082,-5.54345 -18.48487,-8.54994 -22.98427,-8.49762 -44.41462,0.5165 -14.65643,6.16484 -21.14039,7.18013 -25.22078,3.94919 z m 21.94259,-7.65024 c 9.75229,-6.3235 12.28646,-24.2735 4.47658,-31.70844 -6.33538,-6.03124 -15.56635,-2.4587 -20.27306,7.84601 -2.19553,4.80683 -2.44172,14.19814 -0.49438,18.85879 1.67006,3.99701 6.20759,7.56647 9.67329,7.60953 1.40241,0.0174 4.38032,-1.15523 6.61757,-2.60589 z m 64.99616,1.12236 c 4.44299,-2.91116 6.32861,-7.34042 6.3327,-14.87526 0.0105,-19.30393 -17.99153,-28.84556 -25.05809,-13.28157 -3.31802,7.30788 -1.81941,17.51057 3.46399,23.58329 2.38258,3.39317 1.20139,1.18847 4.42542,4.381 1.58955,1.91529 8.03201,2.02977 10.83598,0.19254 z"
       id="path315-8-6"
       clip-path="url(#clipPath393-5-4)"
       transform="translate(1149.4459,746.82079)" /></g><g
     id="layer4"
     transform="translate(-299.53989,-140.45635)"><path
       style="fill:#4ea966;fill-opacity:1"
       d="m -812.94282,-540.02919 c -0.54316,-0.83658 -2.21619,-2.06039 -3.71785,-2.71958 -3.79623,-1.66644 -2.75973,-4.40368 1.23383,-3.25835 1.92971,0.55344 3.43883,0.39601 4.64276,-0.48433 1.61891,-1.18377 1.34804,-1.50909 -2.93128,-3.52061 -4.03461,-1.89649 -4.71502,-2.63692 -4.71502,-5.13095 0,-2.15476 0.62442,-3.15203 2.39513,-3.82525 1.31731,-0.50084 2.6412,-1.5022 2.94196,-2.22525 0.41339,-0.99381 0.81715,-0.88757 1.65456,0.43538 0.60925,0.9625 1.98537,1.75 3.05804,1.75 3.51345,0 2.04124,1.87159 -1.72239,2.18964 -5.1062,0.4315 -5.14434,2.09892 -0.10017,4.37896 5.51935,2.49483 6.25034,5.67647 1.88042,8.18446 -1.66824,0.95744 -3.168,2.64218 -3.3328,3.74387 -0.25431,1.70007 -0.44902,1.77299 -1.28719,0.48201 z m 64.01244,-0.97894 c -0.33992,-0.55 -1.71648,-1 -3.05902,-1 -4.12083,0 -2.9644,-2.83585 1.3007,-3.18963 2.59425,-0.21519 3.84204,-0.84003 4.06893,-2.03753 0.25231,-1.3317 -0.61273,-1.87747 -3.77801,-2.38362 -4.43859,-0.70976 -6.55989,-3.1525 -5.53685,-6.37584 0.33361,-1.05109 1.48354,-2.18942 2.5554,-2.52961 1.07187,-0.3402 1.96316,-1.37572 1.98065,-2.30116 0.0292,-1.54444 0.14089,-1.53891 1.36025,0.0674 0.73064,0.9625 2.29133,1.75 3.46819,1.75 3.40935,0 2.47461,1.841 -1.11024,2.18664 -4.76142,0.45909 -4.11908,2.94715 1.24194,4.81056 5.3507,1.85982 6.12387,4.0642 2.57808,7.35033 -1.41351,1.30999 -2.57002,2.89271 -2.57002,3.51714 0,1.40257 -1.66123,1.4925 -2.5,0.13533 z"
       id="path315-8-6-6"
       clip-path="url(#clipPath393-5-4-2)"
       transform="translate(1148.6264,747.07312)" /><path
       style="fill:#f28893;fill-opacity:1"
       d="m -830.87369,-580.23064 c -6.40793,-11.67944 10.41423,-22.32255 17.97512,-18.76045 3.15921,1.69076 6.60222,10.11137 4.42337,10.81829 -0.80036,0.25967 -5.62432,2.65296 -10.71991,5.3184 -5.09559,2.66545 -9.45758,4.84627 -9.69331,4.84627 -0.23572,0 -1.12911,-1.00013 -1.9853,-2.22251 z m 88.44331,-1.25362 c -3.025,-1.88703 -7.4125,-4.16409 -9.75,-5.06013 -4.7176,-1.8084 -5.28423,-3.56307 -2.73965,-8.48376 1.74157,-3.36782 4.29153,-4.97998 7.87686,-4.97998 5.27259,0.16216 13.92977,7.34306 15.1031,11.95587 0.72779,3.31363 -1.754,10.05514 -3.68928,10.02154 -0.71557,-0.0124 -3.77603,-1.56651 -6.80103,-3.45354 z"
       id="path315-8-0"
       clip-path="url(#clipPath393-5-40)"
       transform="translate(1148.8255,747.47768)" /></g></svg>
