<?xml version="1.0" encoding="UTF-8" standalone="no"?>
<!-- Created with Inkscape (http://www.inkscape.org/) -->

<svg
   width="32.952858mm"
   height="32.585739mm"
   viewBox="0 0 32.952858 32.585739"
   version="1.1"
   id="svg5"
   xml:space="preserve"
   sodipodi:docname="sesion.svg"
   inkscape:version="1.2.2 (732a01da63, 2022-12-09)"
   xmlns:inkscape="http://www.inkscape.org/namespaces/inkscape"
   xmlns:sodipodi="http://sodipodi.sourceforge.net/DTD/sodipodi-0.dtd"
   xmlns="http://www.w3.org/2000/svg"
   xmlns:svg="http://www.w3.org/2000/svg"><sodipodi:namedview
     id="namedview2811"
     pagecolor="#ffffff"
     bordercolor="#666666"
     borderopacity="1.0"
     inkscape:showpageshadow="2"
     inkscape:pageopacity="0.0"
     inkscape:pagecheckerboard="0"
     inkscape:deskcolor="#d1d1d1"
     inkscape:document-units="mm"
     showgrid="false"
     inkscape:zoom="2.1313963"
     inkscape:cx="75.537335"
     inkscape:cy="45.979248"
     inkscape:window-width="1366"
     inkscape:window-height="705"
     inkscape:window-x="-8"
     inkscape:window-y="-8"
     inkscape:window-maximized="1"
     inkscape:current-layer="svg5" /><defs
     id="defs2"><clipPath
       clipPathUnits="userSpaceOnUse"
       id="clipPath509"><path
         style="fill:#ff0000;fill-rule:evenodd;stroke-width:0.276159"
         id="path511"
         d="M 56.97439,74.573965 A 16.648661,16.700851 0 0 1 49.142674,52.813118 16.648661,16.700851 0 0 1 70.500706,44.082402 16.648661,16.700851 0 0 1 80.061585,65.136405 16.648661,16.700851 0 0 1 59.477609,75.571668" /></clipPath><clipPath
       clipPathUnits="userSpaceOnUse"
       id="clipPath513"><path
         style="fill:#ff0000;fill-rule:evenodd;stroke-width:0.276159"
         id="path515"
         d="M 56.97439,74.573965 A 16.648661,16.700851 0 0 1 49.142674,52.813118 16.648661,16.700851 0 0 1 70.500706,44.082402 16.648661,16.700851 0 0 1 80.061585,65.136405 16.648661,16.700851 0 0 1 59.477609,75.571668" /></clipPath><clipPath
       clipPathUnits="userSpaceOnUse"
       id="clipPath1073"><path
         style="fill:none;fill-rule:evenodd;stroke:#000000;stroke-width:0.261957;stroke-opacity:1"
         id="path1075"
         d="M 57.990145,74.413131 A 14.35634,15.272967 0 0 1 51.236762,54.512785 14.35634,15.272967 0 0 1 69.65405,46.528526 14.35634,15.272967 0 0 1 77.898511,65.782459 14.35634,15.272967 0 0 1 60.148701,75.325532" /></clipPath><clipPath
       clipPathUnits="userSpaceOnUse"
       id="clipPath1077"><path
         style="fill:none;fill-rule:evenodd;stroke:#000000;stroke-width:0.261957;stroke-opacity:1"
         id="path1079"
         d="M 57.990145,74.413131 A 14.35634,15.272967 0 0 1 51.236762,54.512785 14.35634,15.272967 0 0 1 69.65405,46.528526 14.35634,15.272967 0 0 1 77.898511,65.782459 14.35634,15.272967 0 0 1 60.148701,75.325532" /></clipPath></defs><g
     id="layer2"
     transform="matrix(1.0000043,0,0,1.0174717,-0.17192006,-0.51782128)"><path
       style="fill:#4ea966;fill-opacity:1;fill-rule:evenodd;stroke:none;stroke-width:0.264583;stroke-opacity:1"
       id="path1081"
       d="M 9.3457938,31.316283 A 16.476429,16.193571 0 0 1 1.5950973,10.21641 16.476429,16.193571 0 0 1 22.732179,1.7508864 16.476429,16.193571 0 0 1 32.19415,22.165383 16.476429,16.193571 0 0 1 11.823117,32.283681" /></g><path
     style="fill:#f7e053;stroke-width:0.264583;fill-opacity:1"
     d="m 34.485707,75.331496 c 0,-41.5277 0.0036,-41.8113 0.539845,-42.95218 0.296915,-0.63166 0.864148,-1.45918 1.26052,-1.83893 1.599401,-1.53232 1.167191,-1.50475 23.590566,-1.50475 19.710529,0 20.647769,0.022 22.635379,0.5303 4.91542,1.25715 8.53161,4.50519 10.54711,9.47333 l 0.82553,2.03491 v 30.42708 c 0,28.726404 -0.0271,30.515804 -0.48403,32.014574 -1.23493,4.05025 -4.35626,7.7893 -7.94233,9.51413 -3.60381,1.73337 -3.42076,1.72097 -25.496659,1.72607 -22.037535,0.005 -19.816825,-0.15238 -23.954577,1.6986 l -1.521354,0.68057 z m 23.652241,-3.53954 c 0.22586,-0.54057 0.65198,-1.32175 0.94691,-1.73595 0.6763,-0.94977 0.67483,-1.25323 -0.007,-1.46967 -0.29885,-0.0949 -1.28112,-0.86175 -2.18282,-1.70422 -1.26336,-1.18038 -1.89561,-1.5748 -2.75613,-1.71939 -0.61418,-0.1032 -1.413746,-0.42131 -1.776826,-0.7069 -1.41902,-1.1162 -1.35003,-3.68693 0.12827,-4.77989 0.665206,-0.49181 0.781286,-0.7561 0.783726,-1.78433 0.009,-3.79832 2.75547,-7.83757 6.5301,-9.60394 2.930219,-1.37122 7.172069,-1.31336 9.952239,0.13575 1.65458,0.86241 4.01906,3.22217 4.76364,4.75412 0.84535,1.73926 1.17392,2.84695 1.39345,4.69768 0.0949,0.80036 0.31925,1.57427 0.49847,1.71979 0.48355,0.39264 1.20091,1.88089 1.20091,2.49143 0,1.11618 -0.85491,2.37037 -1.90107,2.78897 -0.56103,0.22448 -1.24093,0.40814 -1.51088,0.40814 -0.26995,0 -0.89263,0.46897 -1.38371,1.04214 -0.74738,0.87231 -3.31791,2.67662 -4.26128,2.99107 -0.14471,0.0482 0.1044,0.66723 0.55359,1.37553 0.44919,0.70829 1.00061,1.92042 1.22539,2.69361 0.45592,1.56832 0.4581,1.56864 2.67515,0.38622 1.22258,-0.65204 4.6889,-4.21678 5.18067,-5.32776 0.18978,-0.42876 0.43506,-0.77956 0.54506,-0.77956 0.11,0 0.19999,-0.21431 0.19999,-0.47625 0,-0.26194 0.10376,-0.58936 0.23057,-0.7276 0.12682,-0.13825 0.45424,-0.96573 0.72761,-1.83886 0.37698,-1.20406 0.49569,-2.38632 0.49145,-4.89479 -0.005,-2.99304 -0.0742,-3.47268 -0.7276,-5.04784 -0.39711,-0.9573 -0.72202,-1.88004 -0.72202,-2.05052 0,-0.17049 -0.11104,-0.30997 -0.24675,-0.30997 -0.13572,0 -0.33002,-0.26234 -0.43178,-0.58297 -0.10177,-0.32064 -0.31815,-0.72707 -0.48085,-0.90319 -0.16271,-0.17612 -0.59348,-0.71555 -0.95728,-1.19873 -2.63994,-3.50622 -6.82378,-5.67131 -11.53188,-5.96762 -2.52796,-0.1591 -5.545039,0.31585 -7.085349,1.11538 -0.41681,0.21636 -0.91291,0.39338 -1.10243,0.39338 -0.18952,0 -0.38427,0.0893 -0.43278,0.19844 -0.0927,0.20858 -2.23494,1.65364 -2.45145,1.65364 -0.12264,0 -2.160046,2.09835 -2.847566,2.93276 -0.34487,0.41854 -0.46349,0.61514 -1.42324,2.35891 -0.28032,0.50932 -0.60914,0.99888 -0.73071,1.08791 -0.12157,0.089 -0.19141,0.2081 -0.15521,0.26459 0.0362,0.0565 -0.16196,0.75755 -0.44036,1.55792 -0.3969,1.14098 -0.50403,2.16936 -0.49617,4.7625 0.009,3.05962 0.0727,3.47177 0.84632,5.5037 1.39915,3.67469 3.993336,6.78386 7.134776,8.55113 l 1.26917,0.71399 0.17756,-0.99295 c 0.0977,-0.54612 0.36236,-1.43523 0.58823,-1.9758 z"
     id="path348"
     clip-path="url(#clipPath1077)"
     transform="translate(-47.876621,-44.429318)" /><path
     style="fill:#524528;stroke-width:0.264583"
     d="m 63.153106,65.555799 c -1.47311,-0.64078 -2.06365,-2.21654 -0.98569,-2.63019 0.21033,-0.0807 0.59716,0.068 0.85964,0.33048 0.79368,0.79369 1.3516,0.86342 2.57572,0.32194 1.03653,-0.45851 1.20614,-0.47102 1.56194,-0.11523 0.57854,0.57855 0.0765,1.35304 -1.27481,1.96658 -1.3078,0.59379 -1.6283,0.60859 -2.7368,0.12642 z m -3.93459,-5.29046 c -0.79083,-0.79082 -0.82338,-1.44533 -0.10996,-2.21109 0.73264,-0.7864 1.67945,-0.73658 2.35637,0.12398 0.62828,0.79873 0.5276,1.55592 -0.30232,2.27353 -0.72417,0.62617 -1.17472,0.58297 -1.94409,-0.18642 z m 8.93442,0.23756 c -1.20465,-0.84377 -0.47046,-3.02771 1.01785,-3.02771 0.69492,0 1.56912,0.93285 1.56912,1.67438 0,0.74882 -0.9089,1.76521 -1.57852,1.76521 -0.23123,0 -0.68503,-0.18535 -1.00845,-0.41188 z m -6.50194,-5.73969 -0.95534,-1.12447 -0.65372,0.7276 c -0.35955,0.40018 -0.88482,0.7276 -1.16728,0.7276 -0.94031,0 -0.90495,-0.81951 0.0982,-2.27603 1.41534,-2.05502 1.96021,-2.11279 3.18995,-0.33828 l 0.72788,1.05035 1.09036,-1.0701 c 0.59969,-0.58856 1.18839,-1.0701 1.3082,-1.0701 0.11982,0 0.7899,0.47894 1.48906,1.06432 l 1.27122,1.06431 0.56984,-0.80027 c 1.01316,-1.42286 2.38513,-1.67084 2.38513,-0.43112 0,0.54232 -2.51776,3.33609 -3.0065,3.33609 -0.11645,0 -0.74359,-0.43581 -1.39364,-0.96848 l -1.18189,-0.96848 -1.12161,1.10077 c -0.61688,0.60543 -1.2505,1.10077 -1.40805,1.10077 -0.15755,0 -0.71635,-0.50601 -1.2418,-1.12448 z"
     id="path342"
     clip-path="url(#clipPath1073)"
     transform="translate(-48.122868,-43.318797)" /></svg>
